G04 #@! TF.FileFunction,Copper,L2,Bot,Signal*
%FSLAX45Y45*%
G04 Gerber Fmt 4.5, Leading zero omitted, Abs format (unit mm)*
G04 Created by KiCad (PCBNEW 4.0.7) date 03/07/18 09:30:50*
%MOMM*%
%LPD*%
G01*
G04 APERTURE LIST*
%ADD10C,0.100000*%
%ADD11C,0.200000*%
%ADD12R,1.600000X1.600000*%
%ADD13O,1.600000X1.600000*%
%ADD14C,1.600000*%
%ADD15O,1.778000X5.080000*%
%ADD16C,1.400000*%
%ADD17O,1.400000X1.400000*%
%ADD18C,1.500000*%
%ADD19O,1.400000X2.000000*%
%ADD20O,2.000000X1.400000*%
%ADD21R,1.800000X1.800000*%
%ADD22C,1.800000*%
%ADD23R,1.700000X1.700000*%
%ADD24O,1.700000X1.700000*%
%ADD25C,0.600000*%
%ADD26C,1.000000*%
%ADD27C,0.500000*%
%ADD28C,0.250000*%
%ADD29C,0.254000*%
G04 APERTURE END LIST*
D10*
D11*
X18261810Y-10082762D02*
X18261810Y-9972762D01*
X18198952Y-10082762D02*
X18246095Y-10019905D01*
X18198952Y-9972762D02*
X18261810Y-10035619D01*
X18162286Y-10009429D02*
X18136095Y-10082762D01*
X18109905Y-10009429D02*
X18136095Y-10082762D01*
X18146571Y-10108952D01*
X18151810Y-10114191D01*
X18162286Y-10119429D01*
X18068000Y-10009429D02*
X18068000Y-10119429D01*
X18068000Y-10014667D02*
X18057524Y-10009429D01*
X18036572Y-10009429D01*
X18026095Y-10014667D01*
X18020857Y-10019905D01*
X18015619Y-10030381D01*
X18015619Y-10061810D01*
X18020857Y-10072286D01*
X18026095Y-10077524D01*
X18036572Y-10082762D01*
X18057524Y-10082762D01*
X18068000Y-10077524D01*
D12*
X16002000Y-7874000D03*
D13*
X16764000Y-9652000D03*
X16002000Y-8128000D03*
X16764000Y-9398000D03*
X16002000Y-8382000D03*
X16764000Y-9144000D03*
X16002000Y-8636000D03*
X16764000Y-8890000D03*
X16002000Y-8890000D03*
X16764000Y-8636000D03*
X16002000Y-9144000D03*
X16764000Y-8382000D03*
X16002000Y-9398000D03*
X16764000Y-8128000D03*
X16002000Y-9652000D03*
X16764000Y-7874000D03*
D14*
X17018000Y-7239000D03*
X16518000Y-7239000D03*
X17018000Y-6985000D03*
X16518000Y-6985000D03*
X15494000Y-7874000D03*
X14994000Y-7874000D03*
X16764000Y-7620000D03*
X16264000Y-7620000D03*
X18288000Y-8128000D03*
X18288000Y-8628000D03*
X11684000Y-6096000D03*
X12184000Y-6096000D03*
D15*
X11430000Y-10541000D03*
X11684000Y-10541000D03*
X11938000Y-10541000D03*
X12192000Y-10541000D03*
X12700000Y-10541000D03*
X12954000Y-10541000D03*
X13208000Y-10541000D03*
X13462000Y-10541000D03*
X13716000Y-10541000D03*
X13970000Y-10541000D03*
X14224000Y-10541000D03*
X14478000Y-10541000D03*
X14732000Y-10541000D03*
X14986000Y-10541000D03*
X15240000Y-10541000D03*
X15494000Y-10541000D03*
X15748000Y-10541000D03*
X16002000Y-10541000D03*
X16256000Y-10541000D03*
X16510000Y-10541000D03*
X16764000Y-10541000D03*
X17018000Y-10541000D03*
X17272000Y-10541000D03*
X17526000Y-10541000D03*
X17780000Y-10541000D03*
X18034000Y-10541000D03*
X18288000Y-10541000D03*
D16*
X18288000Y-6985000D03*
D17*
X18288000Y-7747000D03*
D16*
X18034000Y-7747000D03*
D17*
X18034000Y-6985000D03*
D16*
X13462000Y-6731000D03*
D17*
X14224000Y-6731000D03*
D16*
X13462000Y-6477000D03*
D17*
X14224000Y-6477000D03*
D16*
X13462000Y-6223000D03*
D17*
X14224000Y-6223000D03*
D16*
X13462000Y-6985000D03*
D17*
X14224000Y-6985000D03*
D16*
X16256000Y-6604000D03*
D17*
X17018000Y-6604000D03*
D16*
X16256000Y-6350000D03*
D17*
X17018000Y-6350000D03*
D16*
X16002000Y-6096000D03*
D17*
X16002000Y-6858000D03*
D16*
X16256000Y-6096000D03*
D17*
X17018000Y-6096000D03*
D16*
X13462000Y-7493000D03*
D17*
X14224000Y-7493000D03*
D16*
X13462000Y-7239000D03*
D17*
X14224000Y-7239000D03*
D12*
X17272000Y-8128000D03*
D13*
X18034000Y-9652000D03*
X17272000Y-8382000D03*
X18034000Y-9398000D03*
X17272000Y-8636000D03*
X18034000Y-9144000D03*
X17272000Y-8890000D03*
X18034000Y-8890000D03*
X17272000Y-9144000D03*
X18034000Y-8636000D03*
X17272000Y-9398000D03*
X18034000Y-8382000D03*
X17272000Y-9652000D03*
X18034000Y-8128000D03*
D12*
X13462000Y-8128000D03*
D13*
X14224000Y-9652000D03*
X13462000Y-8382000D03*
X14224000Y-9398000D03*
X13462000Y-8636000D03*
X14224000Y-9144000D03*
X13462000Y-8890000D03*
X14224000Y-8890000D03*
X13462000Y-9144000D03*
X14224000Y-8636000D03*
X13462000Y-9398000D03*
X14224000Y-8382000D03*
X13462000Y-9652000D03*
X14224000Y-8128000D03*
D12*
X11430000Y-6350000D03*
D13*
X12954000Y-9652000D03*
X11430000Y-6604000D03*
X12954000Y-9398000D03*
X11430000Y-6858000D03*
X12954000Y-9144000D03*
X11430000Y-7112000D03*
X12954000Y-8890000D03*
X11430000Y-7366000D03*
X12954000Y-8636000D03*
X11430000Y-7620000D03*
X12954000Y-8382000D03*
X11430000Y-7874000D03*
X12954000Y-8128000D03*
X11430000Y-8128000D03*
X12954000Y-7874000D03*
X11430000Y-8382000D03*
X12954000Y-7620000D03*
X11430000Y-8636000D03*
X12954000Y-7366000D03*
X11430000Y-8890000D03*
X12954000Y-7112000D03*
X11430000Y-9144000D03*
X12954000Y-6858000D03*
X11430000Y-9398000D03*
X12954000Y-6604000D03*
X11430000Y-9652000D03*
X12954000Y-6350000D03*
D18*
X17526000Y-6985000D03*
X17526000Y-7473000D03*
D12*
X14859000Y-7366000D03*
D14*
X14609000Y-7366000D03*
D12*
X15621000Y-7366000D03*
D14*
X15371000Y-7366000D03*
D19*
X14613000Y-6723000D03*
X14863000Y-6723000D03*
X15363000Y-6723000D03*
D20*
X15113000Y-6223000D03*
D19*
X15613000Y-6723000D03*
D14*
X14224000Y-7874000D03*
X13724000Y-7874000D03*
D12*
X14732000Y-8128000D03*
D13*
X15494000Y-9652000D03*
X14732000Y-8382000D03*
X15494000Y-9398000D03*
X14732000Y-8636000D03*
X15494000Y-9144000D03*
X14732000Y-8890000D03*
X15494000Y-8890000D03*
X14732000Y-9144000D03*
X15494000Y-8636000D03*
X14732000Y-9398000D03*
X15494000Y-8382000D03*
X14732000Y-9652000D03*
X15494000Y-8128000D03*
D21*
X17526000Y-6223000D03*
D22*
X17780000Y-6223000D03*
D16*
X18034000Y-5969000D03*
D17*
X18034000Y-6731000D03*
D16*
X14478000Y-9144000D03*
D17*
X14478000Y-8382000D03*
D23*
X14478000Y-9398000D03*
D24*
X14478000Y-9652000D03*
D25*
X11557000Y-10223500D03*
X12192000Y-7747000D03*
X13144500Y-7747000D03*
X13144500Y-8001000D03*
X12128500Y-8001000D03*
X14160500Y-10160000D03*
X15494000Y-10033000D03*
X12255500Y-8128000D03*
X12509500Y-7874000D03*
X12573000Y-7620000D03*
X12700000Y-8255000D03*
X15748000Y-8509000D03*
X16383000Y-8509000D03*
X16446500Y-8255000D03*
X15748000Y-8255000D03*
X15748000Y-8763000D03*
X16510000Y-8763000D03*
X14097000Y-10096500D03*
X12763500Y-8509000D03*
D26*
X14732000Y-10541000D02*
X14732000Y-10160000D01*
X12954000Y-10541000D02*
X12954000Y-10160000D01*
X12700000Y-10541000D02*
X12700000Y-10160000D01*
D27*
X18034000Y-5969000D02*
X18288000Y-5969000D01*
X18415000Y-6096000D02*
X18415000Y-8001000D01*
X18288000Y-5969000D02*
X18415000Y-6096000D01*
X18415000Y-8001000D02*
X18288000Y-8128000D01*
X16764000Y-5969000D02*
X18034000Y-5969000D01*
X16764000Y-7620000D02*
X16764000Y-5969000D01*
D28*
X14224000Y-8382000D02*
X14097000Y-8509000D01*
X14097000Y-8509000D02*
X14097000Y-9017000D01*
X14097000Y-9017000D02*
X14224000Y-9144000D01*
D27*
X14224000Y-8382000D02*
X14478000Y-8382000D01*
X13843000Y-5969000D02*
X13843000Y-7493000D01*
X13843000Y-7493000D02*
X14224000Y-7874000D01*
X14478000Y-7620000D02*
X15240000Y-7620000D01*
X15240000Y-7620000D02*
X15494000Y-7874000D01*
X11430000Y-6858000D02*
X11303000Y-6731000D01*
X11557000Y-5969000D02*
X11684000Y-6096000D01*
X11430000Y-5969000D02*
X11557000Y-5969000D01*
X11303000Y-6096000D02*
X11430000Y-5969000D01*
X11303000Y-6731000D02*
X11303000Y-6096000D01*
D28*
X13462000Y-8890000D02*
X13589000Y-8763000D01*
X13589000Y-8255000D02*
X13462000Y-8128000D01*
X13589000Y-8763000D02*
X13589000Y-8255000D01*
D27*
X11938000Y-10160000D02*
X11811000Y-10033000D01*
X11430000Y-6858000D02*
X11303000Y-6985000D01*
X11303000Y-6985000D02*
X11303000Y-9906000D01*
X11303000Y-9906000D02*
X11430000Y-10033000D01*
X11430000Y-10033000D02*
X11811000Y-10033000D01*
X11938000Y-10541000D02*
X11938000Y-10160000D01*
X14224000Y-8382000D02*
X14224000Y-8128000D01*
X14224000Y-7874000D02*
X14478000Y-7620000D01*
X11684000Y-6096000D02*
X11811000Y-5969000D01*
X11811000Y-5969000D02*
X13843000Y-5969000D01*
X13843000Y-5969000D02*
X14351000Y-5969000D01*
X14351000Y-5969000D02*
X14414500Y-5969000D01*
X15811500Y-5969000D02*
X15875000Y-5969000D01*
X14478000Y-5969000D02*
X15811500Y-5969000D01*
X14414500Y-5969000D02*
X14478000Y-5969000D01*
X15875000Y-5969000D02*
X16764000Y-5969000D01*
X16764000Y-7874000D02*
X16764000Y-7620000D01*
X15494000Y-7874000D02*
X15494000Y-8128000D01*
X14224000Y-7874000D02*
X14224000Y-8128000D01*
X18034000Y-8128000D02*
X18288000Y-8128000D01*
D28*
X11557000Y-10223500D02*
X11430000Y-10350500D01*
X13144500Y-7747000D02*
X12192000Y-7747000D01*
X11430000Y-10350500D02*
X11430000Y-10541000D01*
X13144500Y-8001000D02*
X12128500Y-8001000D01*
X13906500Y-10160000D02*
X14160500Y-10160000D01*
X13716000Y-10350500D02*
X13906500Y-10160000D01*
X13716000Y-10541000D02*
X13716000Y-10350500D01*
X15938500Y-10033000D02*
X16256000Y-10350500D01*
X15938500Y-10033000D02*
X15494000Y-10033000D01*
X16256000Y-10541000D02*
X16256000Y-10350500D01*
X12255500Y-8128000D02*
X12954000Y-8128000D01*
X12509500Y-7874000D02*
X12954000Y-7874000D01*
X12573000Y-7620000D02*
X12954000Y-7620000D01*
X13462000Y-8382000D02*
X13335000Y-8255000D01*
X13335000Y-8255000D02*
X12700000Y-8255000D01*
X15494000Y-8636000D02*
X16002000Y-8636000D01*
X15494000Y-8382000D02*
X15748000Y-8128000D01*
X15748000Y-8128000D02*
X16002000Y-8128000D01*
X15748000Y-8509000D02*
X16383000Y-8509000D01*
X15748000Y-8255000D02*
X16446500Y-8255000D01*
X15748000Y-8763000D02*
X16510000Y-8763000D01*
X13716000Y-10096500D02*
X13462000Y-10350500D01*
X13716000Y-10096500D02*
X14097000Y-10096500D01*
X13462000Y-10541000D02*
X13462000Y-10350500D01*
X13335000Y-9017000D02*
X13335000Y-8572500D01*
X13271500Y-8509000D02*
X13335000Y-8572500D01*
X13271500Y-8509000D02*
X12763500Y-8509000D01*
X13462000Y-9144000D02*
X13335000Y-9017000D01*
X14224000Y-8636000D02*
X14351000Y-8763000D01*
X14351000Y-9525000D02*
X14224000Y-9652000D01*
X14351000Y-8763000D02*
X14351000Y-9525000D01*
X14478000Y-9144000D02*
X14732000Y-9144000D01*
X14478000Y-9398000D02*
X14478000Y-9144000D01*
D29*
G36*
X11540516Y-6077674D02*
X11540475Y-6124419D01*
X11562276Y-6177180D01*
X11602608Y-6217582D01*
X11655331Y-6239475D01*
X11712419Y-6239525D01*
X11765180Y-6217724D01*
X11786166Y-6196774D01*
X12101186Y-6196774D01*
X12108599Y-6221386D01*
X12162322Y-6240696D01*
X12219345Y-6237978D01*
X12259400Y-6221386D01*
X12266814Y-6196774D01*
X12184000Y-6113960D01*
X12101186Y-6196774D01*
X11786166Y-6196774D01*
X11805582Y-6177392D01*
X11827475Y-6124669D01*
X11827516Y-6077642D01*
X11847658Y-6057500D01*
X12045350Y-6057500D01*
X12039303Y-6074322D01*
X12042022Y-6131345D01*
X12058614Y-6171400D01*
X12083225Y-6178814D01*
X12166039Y-6096000D01*
X12164625Y-6094586D01*
X12182586Y-6076625D01*
X12184000Y-6078039D01*
X12185414Y-6076625D01*
X12203375Y-6094586D01*
X12201960Y-6096000D01*
X12284774Y-6178814D01*
X12309386Y-6171400D01*
X12328696Y-6117678D01*
X12325978Y-6060655D01*
X12324671Y-6057500D01*
X13754500Y-6057500D01*
X13754500Y-7492999D01*
X13754500Y-7493000D01*
X13757787Y-7509525D01*
X13761237Y-7526867D01*
X13776550Y-7549785D01*
X13780421Y-7555579D01*
X14080516Y-7855674D01*
X14080475Y-7902419D01*
X14102276Y-7955180D01*
X14135500Y-7988462D01*
X14135500Y-8015986D01*
X14119719Y-8026530D01*
X14088612Y-8073085D01*
X14077689Y-8128000D01*
X14088612Y-8182915D01*
X14119719Y-8229470D01*
X14135500Y-8240014D01*
X14135500Y-8269986D01*
X14119719Y-8280530D01*
X14088612Y-8327085D01*
X14077689Y-8382000D01*
X14084131Y-8414389D01*
X14043260Y-8455260D01*
X14026785Y-8479916D01*
X14021000Y-8509000D01*
X14021000Y-9017000D01*
X14026785Y-9046084D01*
X14043260Y-9070740D01*
X14084131Y-9111611D01*
X14077689Y-9144000D01*
X14088612Y-9198915D01*
X14119719Y-9245470D01*
X14157927Y-9271000D01*
X14119719Y-9296530D01*
X14088612Y-9343085D01*
X14077689Y-9398000D01*
X14088612Y-9452915D01*
X14119719Y-9499470D01*
X14157927Y-9525000D01*
X14119719Y-9550530D01*
X14088612Y-9597085D01*
X14077689Y-9652000D01*
X14088612Y-9706915D01*
X14119719Y-9753470D01*
X14166274Y-9784577D01*
X14221189Y-9795500D01*
X14226811Y-9795500D01*
X14281726Y-9784577D01*
X14328281Y-9753470D01*
X14348002Y-9723955D01*
X14370085Y-9757005D01*
X14418262Y-9789196D01*
X14475091Y-9800500D01*
X14480909Y-9800500D01*
X14537738Y-9789196D01*
X14585915Y-9757005D01*
X14608095Y-9723810D01*
X14608896Y-9725742D01*
X14646487Y-9767239D01*
X14697096Y-9791191D01*
X14719300Y-9779063D01*
X14719300Y-9664700D01*
X14744700Y-9664700D01*
X14744700Y-9779063D01*
X14766904Y-9791191D01*
X14817513Y-9767239D01*
X14855104Y-9725742D01*
X14871190Y-9686904D01*
X14858991Y-9664700D01*
X14744700Y-9664700D01*
X14719300Y-9664700D01*
X14717300Y-9664700D01*
X14717300Y-9652000D01*
X15347689Y-9652000D01*
X15358612Y-9706915D01*
X15389719Y-9753470D01*
X15436274Y-9784577D01*
X15491189Y-9795500D01*
X15496811Y-9795500D01*
X15551726Y-9784577D01*
X15598281Y-9753470D01*
X15629388Y-9706915D01*
X15633368Y-9686904D01*
X15862810Y-9686904D01*
X15878896Y-9725742D01*
X15916487Y-9767239D01*
X15967096Y-9791191D01*
X15989300Y-9779063D01*
X15989300Y-9664700D01*
X16014700Y-9664700D01*
X16014700Y-9779063D01*
X16036904Y-9791191D01*
X16087513Y-9767239D01*
X16125104Y-9725742D01*
X16141190Y-9686904D01*
X16128991Y-9664700D01*
X16014700Y-9664700D01*
X15989300Y-9664700D01*
X15875008Y-9664700D01*
X15862810Y-9686904D01*
X15633368Y-9686904D01*
X15640311Y-9652000D01*
X15629388Y-9597085D01*
X15598281Y-9550530D01*
X15557830Y-9523501D01*
X15579513Y-9513239D01*
X15617104Y-9471742D01*
X15633190Y-9432904D01*
X15620991Y-9410700D01*
X15506700Y-9410700D01*
X15506700Y-9412700D01*
X15481300Y-9412700D01*
X15481300Y-9410700D01*
X15367008Y-9410700D01*
X15354810Y-9432904D01*
X15370896Y-9471742D01*
X15408487Y-9513239D01*
X15430170Y-9523501D01*
X15389719Y-9550530D01*
X15358612Y-9597085D01*
X15347689Y-9652000D01*
X14717300Y-9652000D01*
X14717300Y-9639300D01*
X14719300Y-9639300D01*
X14719300Y-9637300D01*
X14744700Y-9637300D01*
X14744700Y-9639300D01*
X14858991Y-9639300D01*
X14871190Y-9617096D01*
X14855104Y-9578258D01*
X14817513Y-9536761D01*
X14795830Y-9526499D01*
X14836281Y-9499470D01*
X14867388Y-9452915D01*
X14878311Y-9398000D01*
X14867388Y-9343085D01*
X14836281Y-9296530D01*
X14798072Y-9271000D01*
X14836281Y-9245470D01*
X14867388Y-9198915D01*
X14871368Y-9178904D01*
X15354810Y-9178904D01*
X15370896Y-9217742D01*
X15408487Y-9259239D01*
X15433337Y-9271000D01*
X15408487Y-9282761D01*
X15370896Y-9324258D01*
X15354810Y-9363096D01*
X15367008Y-9385300D01*
X15481300Y-9385300D01*
X15481300Y-9156700D01*
X15506700Y-9156700D01*
X15506700Y-9385300D01*
X15620991Y-9385300D01*
X15633190Y-9363096D01*
X15617104Y-9324258D01*
X15579513Y-9282761D01*
X15554663Y-9271000D01*
X15579513Y-9259239D01*
X15617104Y-9217742D01*
X15633190Y-9178904D01*
X15620991Y-9156700D01*
X15506700Y-9156700D01*
X15481300Y-9156700D01*
X15367008Y-9156700D01*
X15354810Y-9178904D01*
X14871368Y-9178904D01*
X14878311Y-9144000D01*
X14867388Y-9089085D01*
X14836281Y-9042530D01*
X14798072Y-9017000D01*
X14836281Y-8991470D01*
X14867388Y-8944915D01*
X14878311Y-8890000D01*
X14867388Y-8835085D01*
X14836281Y-8788530D01*
X14798072Y-8763000D01*
X14836281Y-8737470D01*
X14867388Y-8690915D01*
X14878311Y-8636000D01*
X14867388Y-8581085D01*
X14836281Y-8534530D01*
X14795830Y-8507501D01*
X14817513Y-8497239D01*
X14855104Y-8455742D01*
X14871190Y-8416904D01*
X14858991Y-8394700D01*
X14744700Y-8394700D01*
X14744700Y-8396700D01*
X14719300Y-8396700D01*
X14719300Y-8394700D01*
X14717300Y-8394700D01*
X14717300Y-8369300D01*
X14719300Y-8369300D01*
X14719300Y-8140700D01*
X14744700Y-8140700D01*
X14744700Y-8369300D01*
X14858991Y-8369300D01*
X14871190Y-8347096D01*
X14855104Y-8308258D01*
X14821806Y-8271500D01*
X14824631Y-8271500D01*
X14847970Y-8261833D01*
X14865833Y-8243970D01*
X14875500Y-8220631D01*
X14875500Y-8156575D01*
X14859625Y-8140700D01*
X14744700Y-8140700D01*
X14719300Y-8140700D01*
X14604375Y-8140700D01*
X14588500Y-8156575D01*
X14588500Y-8220631D01*
X14598167Y-8243970D01*
X14616030Y-8261833D01*
X14639369Y-8271500D01*
X14642194Y-8271500D01*
X14608896Y-8308258D01*
X14600880Y-8327611D01*
X14572399Y-8284986D01*
X14529088Y-8256047D01*
X14478000Y-8245885D01*
X14426912Y-8256047D01*
X14383601Y-8284986D01*
X14377912Y-8293500D01*
X14336947Y-8293500D01*
X14328281Y-8280530D01*
X14312500Y-8269986D01*
X14312500Y-8240014D01*
X14328281Y-8229470D01*
X14359388Y-8182915D01*
X14370311Y-8128000D01*
X14359388Y-8073085D01*
X14334187Y-8035369D01*
X14588500Y-8035369D01*
X14588500Y-8099425D01*
X14604375Y-8115300D01*
X14719300Y-8115300D01*
X14719300Y-8000375D01*
X14744700Y-8000375D01*
X14744700Y-8115300D01*
X14859625Y-8115300D01*
X14875500Y-8099425D01*
X14875500Y-8035369D01*
X14865833Y-8012030D01*
X14847970Y-7994167D01*
X14824631Y-7984500D01*
X14760575Y-7984500D01*
X14744700Y-8000375D01*
X14719300Y-8000375D01*
X14703425Y-7984500D01*
X14639369Y-7984500D01*
X14616030Y-7994167D01*
X14598167Y-8012030D01*
X14588500Y-8035369D01*
X14334187Y-8035369D01*
X14328281Y-8026530D01*
X14312500Y-8015986D01*
X14312500Y-7988417D01*
X14326166Y-7974774D01*
X14911186Y-7974774D01*
X14918599Y-7999386D01*
X14972322Y-8018696D01*
X15029345Y-8015978D01*
X15069400Y-7999386D01*
X15076814Y-7974774D01*
X14994000Y-7891960D01*
X14911186Y-7974774D01*
X14326166Y-7974774D01*
X14345582Y-7955392D01*
X14367475Y-7902669D01*
X14367516Y-7855642D01*
X14370836Y-7852322D01*
X14849303Y-7852322D01*
X14852022Y-7909345D01*
X14868614Y-7949400D01*
X14893225Y-7956814D01*
X14976039Y-7874000D01*
X15011960Y-7874000D01*
X15094774Y-7956814D01*
X15119386Y-7949400D01*
X15138696Y-7895678D01*
X15135978Y-7838655D01*
X15119386Y-7798599D01*
X15094774Y-7791186D01*
X15011960Y-7874000D01*
X14976039Y-7874000D01*
X14893225Y-7791186D01*
X14868614Y-7798599D01*
X14849303Y-7852322D01*
X14370836Y-7852322D01*
X14449932Y-7773225D01*
X14911186Y-7773225D01*
X14994000Y-7856039D01*
X15076814Y-7773225D01*
X15069400Y-7748614D01*
X15015678Y-7729303D01*
X14958655Y-7732022D01*
X14918599Y-7748614D01*
X14911186Y-7773225D01*
X14449932Y-7773225D01*
X14514658Y-7708500D01*
X15203342Y-7708500D01*
X15350516Y-7855674D01*
X15350475Y-7902419D01*
X15372276Y-7955180D01*
X15405500Y-7988462D01*
X15405500Y-8015986D01*
X15389719Y-8026530D01*
X15358612Y-8073085D01*
X15347689Y-8128000D01*
X15358612Y-8182915D01*
X15389719Y-8229470D01*
X15427927Y-8255000D01*
X15389719Y-8280530D01*
X15358612Y-8327085D01*
X15347689Y-8382000D01*
X15358612Y-8436915D01*
X15389719Y-8483470D01*
X15427927Y-8509000D01*
X15389719Y-8534530D01*
X15358612Y-8581085D01*
X15347689Y-8636000D01*
X15358612Y-8690915D01*
X15389719Y-8737470D01*
X15427927Y-8763000D01*
X15389719Y-8788530D01*
X15358612Y-8835085D01*
X15347689Y-8890000D01*
X15358612Y-8944915D01*
X15389719Y-8991470D01*
X15430170Y-9018499D01*
X15408487Y-9028761D01*
X15370896Y-9070258D01*
X15354810Y-9109096D01*
X15367008Y-9131300D01*
X15481300Y-9131300D01*
X15481300Y-9129300D01*
X15506700Y-9129300D01*
X15506700Y-9131300D01*
X15620991Y-9131300D01*
X15633190Y-9109096D01*
X15617104Y-9070258D01*
X15579513Y-9028761D01*
X15557830Y-9018499D01*
X15598281Y-8991470D01*
X15629388Y-8944915D01*
X15640311Y-8890000D01*
X15629388Y-8835085D01*
X15598281Y-8788530D01*
X15560072Y-8763000D01*
X15598281Y-8737470D01*
X15615299Y-8712000D01*
X15667937Y-8712000D01*
X15654516Y-8744320D01*
X15654484Y-8781517D01*
X15668688Y-8815894D01*
X15694967Y-8842219D01*
X15729320Y-8856484D01*
X15766517Y-8856516D01*
X15800894Y-8842312D01*
X15804212Y-8839000D01*
X15865833Y-8839000D01*
X15855689Y-8890000D01*
X15866612Y-8944915D01*
X15897719Y-8991470D01*
X15935927Y-9017000D01*
X15897719Y-9042530D01*
X15866612Y-9089085D01*
X15855689Y-9144000D01*
X15866612Y-9198915D01*
X15897719Y-9245470D01*
X15935927Y-9271000D01*
X15897719Y-9296530D01*
X15866612Y-9343085D01*
X15855689Y-9398000D01*
X15866612Y-9452915D01*
X15897719Y-9499470D01*
X15938170Y-9526499D01*
X15916487Y-9536761D01*
X15878896Y-9578258D01*
X15862810Y-9617096D01*
X15875008Y-9639300D01*
X15989300Y-9639300D01*
X15989300Y-9637300D01*
X16014700Y-9637300D01*
X16014700Y-9639300D01*
X16128991Y-9639300D01*
X16141190Y-9617096D01*
X16125104Y-9578258D01*
X16087513Y-9536761D01*
X16065830Y-9526499D01*
X16106281Y-9499470D01*
X16137388Y-9452915D01*
X16148311Y-9398000D01*
X16137388Y-9343085D01*
X16106281Y-9296530D01*
X16068072Y-9271000D01*
X16106281Y-9245470D01*
X16137388Y-9198915D01*
X16148311Y-9144000D01*
X16137388Y-9089085D01*
X16106281Y-9042530D01*
X16068072Y-9017000D01*
X16106281Y-8991470D01*
X16137388Y-8944915D01*
X16148311Y-8890000D01*
X16138167Y-8839000D01*
X16453754Y-8839000D01*
X16456967Y-8842219D01*
X16491320Y-8856484D01*
X16528517Y-8856516D01*
X16562894Y-8842312D01*
X16589219Y-8816033D01*
X16603484Y-8781680D01*
X16603516Y-8744483D01*
X16589312Y-8710106D01*
X16563033Y-8683781D01*
X16528680Y-8669516D01*
X16491483Y-8669484D01*
X16457106Y-8683688D01*
X16453788Y-8687000D01*
X16138167Y-8687000D01*
X16148311Y-8636000D01*
X16138167Y-8585000D01*
X16326754Y-8585000D01*
X16329967Y-8588219D01*
X16364320Y-8602484D01*
X16401517Y-8602516D01*
X16435894Y-8588312D01*
X16462219Y-8562033D01*
X16476484Y-8527680D01*
X16476516Y-8490483D01*
X16462312Y-8456106D01*
X16436033Y-8429781D01*
X16401680Y-8415516D01*
X16364483Y-8415484D01*
X16330106Y-8429688D01*
X16326788Y-8433000D01*
X16138167Y-8433000D01*
X16148311Y-8382000D01*
X16138167Y-8331000D01*
X16390254Y-8331000D01*
X16393467Y-8334219D01*
X16427820Y-8348484D01*
X16465017Y-8348516D01*
X16499394Y-8334312D01*
X16525719Y-8308033D01*
X16539984Y-8273680D01*
X16540016Y-8236483D01*
X16525812Y-8202106D01*
X16499533Y-8175781D01*
X16465180Y-8161516D01*
X16427983Y-8161484D01*
X16393606Y-8175688D01*
X16390288Y-8179000D01*
X16138167Y-8179000D01*
X16148311Y-8128000D01*
X16137388Y-8073085D01*
X16106281Y-8026530D01*
X16091853Y-8016890D01*
X16105532Y-8014316D01*
X16127144Y-8000409D01*
X16141643Y-7979189D01*
X16146744Y-7954000D01*
X16146744Y-7794000D01*
X16142316Y-7770468D01*
X16128409Y-7748856D01*
X16107189Y-7734357D01*
X16082000Y-7729256D01*
X15922000Y-7729256D01*
X15898468Y-7733684D01*
X15876856Y-7747591D01*
X15862357Y-7768811D01*
X15857256Y-7794000D01*
X15857256Y-7954000D01*
X15861684Y-7977532D01*
X15875591Y-7999144D01*
X15896811Y-8013643D01*
X15912309Y-8016781D01*
X15897719Y-8026530D01*
X15880700Y-8052000D01*
X15748000Y-8052000D01*
X15723741Y-8056825D01*
X15718916Y-8057785D01*
X15694260Y-8074260D01*
X15640259Y-8128260D01*
X15640311Y-8128000D01*
X15629388Y-8073085D01*
X15598281Y-8026530D01*
X15582500Y-8015986D01*
X15582500Y-7988417D01*
X15615582Y-7955392D01*
X15637475Y-7902669D01*
X15637525Y-7845581D01*
X15615724Y-7792820D01*
X15575392Y-7752418D01*
X15522669Y-7730525D01*
X15475642Y-7730484D01*
X15465932Y-7720774D01*
X16181186Y-7720774D01*
X16188599Y-7745386D01*
X16242322Y-7764696D01*
X16299345Y-7761978D01*
X16339400Y-7745386D01*
X16346814Y-7720774D01*
X16264000Y-7637960D01*
X16181186Y-7720774D01*
X15465932Y-7720774D01*
X15343480Y-7598322D01*
X16119303Y-7598322D01*
X16122022Y-7655345D01*
X16138614Y-7695400D01*
X16163225Y-7702814D01*
X16246039Y-7620000D01*
X16281960Y-7620000D01*
X16364774Y-7702814D01*
X16389386Y-7695400D01*
X16408696Y-7641678D01*
X16405978Y-7584655D01*
X16389386Y-7544599D01*
X16364774Y-7537186D01*
X16281960Y-7620000D01*
X16246039Y-7620000D01*
X16163225Y-7537186D01*
X16138614Y-7544599D01*
X16119303Y-7598322D01*
X15343480Y-7598322D01*
X15302579Y-7557421D01*
X15299822Y-7555579D01*
X15273867Y-7538237D01*
X15268248Y-7537119D01*
X15240000Y-7531500D01*
X15239999Y-7531500D01*
X14478000Y-7531500D01*
X14444132Y-7538237D01*
X14415421Y-7557421D01*
X14415421Y-7557421D01*
X14242326Y-7730516D01*
X14205642Y-7730484D01*
X13931500Y-7456342D01*
X13931500Y-7239000D01*
X14087885Y-7239000D01*
X14098047Y-7290088D01*
X14126986Y-7333399D01*
X14170296Y-7362338D01*
X14188707Y-7366000D01*
X14170296Y-7369662D01*
X14126986Y-7398601D01*
X14098047Y-7441912D01*
X14087885Y-7493000D01*
X14098047Y-7544088D01*
X14126986Y-7587399D01*
X14170296Y-7616338D01*
X14221385Y-7626500D01*
X14226615Y-7626500D01*
X14277704Y-7616338D01*
X14321014Y-7587399D01*
X14349953Y-7544088D01*
X14354899Y-7519225D01*
X16181186Y-7519225D01*
X16264000Y-7602039D01*
X16346814Y-7519225D01*
X16339400Y-7494614D01*
X16285678Y-7475303D01*
X16228655Y-7478022D01*
X16188599Y-7494614D01*
X16181186Y-7519225D01*
X14354899Y-7519225D01*
X14360115Y-7493000D01*
X14349953Y-7441912D01*
X14321014Y-7398601D01*
X14314755Y-7394419D01*
X14465475Y-7394419D01*
X14487276Y-7447180D01*
X14527608Y-7487582D01*
X14580331Y-7509475D01*
X14637419Y-7509525D01*
X14690180Y-7487724D01*
X14717058Y-7460893D01*
X14718684Y-7469532D01*
X14732591Y-7491144D01*
X14753811Y-7505643D01*
X14779000Y-7510744D01*
X14939000Y-7510744D01*
X14962532Y-7506316D01*
X14984144Y-7492409D01*
X14998643Y-7471189D01*
X15003744Y-7446000D01*
X15003744Y-7394419D01*
X15227475Y-7394419D01*
X15249276Y-7447180D01*
X15289608Y-7487582D01*
X15342331Y-7509475D01*
X15399419Y-7509525D01*
X15452180Y-7487724D01*
X15479058Y-7460893D01*
X15480684Y-7469532D01*
X15494591Y-7491144D01*
X15515811Y-7505643D01*
X15541000Y-7510744D01*
X15701000Y-7510744D01*
X15724532Y-7506316D01*
X15746144Y-7492409D01*
X15760643Y-7471189D01*
X15765744Y-7446000D01*
X15765744Y-7339774D01*
X16435186Y-7339774D01*
X16442599Y-7364386D01*
X16496322Y-7383696D01*
X16553345Y-7380978D01*
X16593400Y-7364386D01*
X16600814Y-7339774D01*
X16518000Y-7256960D01*
X16435186Y-7339774D01*
X15765744Y-7339774D01*
X15765744Y-7286000D01*
X15761316Y-7262468D01*
X15747409Y-7240856D01*
X15726189Y-7226357D01*
X15701000Y-7221256D01*
X15541000Y-7221256D01*
X15517468Y-7225684D01*
X15495856Y-7239591D01*
X15481357Y-7260811D01*
X15479232Y-7271304D01*
X15452392Y-7244418D01*
X15399669Y-7222525D01*
X15342581Y-7222475D01*
X15289820Y-7244276D01*
X15249418Y-7284608D01*
X15227525Y-7337331D01*
X15227475Y-7394419D01*
X15003744Y-7394419D01*
X15003744Y-7286000D01*
X14999316Y-7262468D01*
X14985409Y-7240856D01*
X14964189Y-7226357D01*
X14939000Y-7221256D01*
X14779000Y-7221256D01*
X14755468Y-7225684D01*
X14733856Y-7239591D01*
X14719357Y-7260811D01*
X14717232Y-7271304D01*
X14690392Y-7244418D01*
X14637669Y-7222525D01*
X14580581Y-7222475D01*
X14527820Y-7244276D01*
X14487418Y-7284608D01*
X14465525Y-7337331D01*
X14465475Y-7394419D01*
X14314755Y-7394419D01*
X14277704Y-7369662D01*
X14259293Y-7366000D01*
X14277704Y-7362338D01*
X14321014Y-7333399D01*
X14349953Y-7290088D01*
X14360115Y-7239000D01*
X14355803Y-7217322D01*
X16373303Y-7217322D01*
X16376022Y-7274345D01*
X16392614Y-7314400D01*
X16417225Y-7321814D01*
X16500039Y-7239000D01*
X16535960Y-7239000D01*
X16618774Y-7321814D01*
X16643386Y-7314400D01*
X16662696Y-7260678D01*
X16659978Y-7203655D01*
X16643386Y-7163599D01*
X16618774Y-7156186D01*
X16535960Y-7239000D01*
X16500039Y-7239000D01*
X16417225Y-7156186D01*
X16392614Y-7163599D01*
X16373303Y-7217322D01*
X14355803Y-7217322D01*
X14349953Y-7187912D01*
X14321014Y-7144601D01*
X14277704Y-7115662D01*
X14261246Y-7112389D01*
X14304266Y-7091676D01*
X14309541Y-7085774D01*
X16435186Y-7085774D01*
X16442599Y-7110386D01*
X16446771Y-7111886D01*
X16442599Y-7113614D01*
X16435186Y-7138225D01*
X16518000Y-7221039D01*
X16600814Y-7138225D01*
X16593400Y-7113614D01*
X16589229Y-7112114D01*
X16593400Y-7110386D01*
X16600814Y-7085774D01*
X16518000Y-7002960D01*
X16435186Y-7085774D01*
X14309541Y-7085774D01*
X14338980Y-7052840D01*
X14353272Y-7018333D01*
X14340937Y-6997700D01*
X14236700Y-6997700D01*
X14236700Y-6999700D01*
X14211300Y-6999700D01*
X14211300Y-6997700D01*
X14107063Y-6997700D01*
X14094728Y-7018333D01*
X14109020Y-7052840D01*
X14143734Y-7091676D01*
X14186753Y-7112389D01*
X14170296Y-7115662D01*
X14126986Y-7144601D01*
X14098047Y-7187912D01*
X14087885Y-7239000D01*
X13931500Y-7239000D01*
X13931500Y-6764333D01*
X14094728Y-6764333D01*
X14109020Y-6798840D01*
X14143734Y-6837676D01*
X14185946Y-6858000D01*
X14143734Y-6878324D01*
X14109020Y-6917160D01*
X14094728Y-6951667D01*
X14107063Y-6972300D01*
X14211300Y-6972300D01*
X14211300Y-6867979D01*
X14194494Y-6858000D01*
X14211300Y-6848021D01*
X14211300Y-6743700D01*
X14236700Y-6743700D01*
X14236700Y-6848021D01*
X14253506Y-6858000D01*
X14236700Y-6867979D01*
X14236700Y-6972300D01*
X14340937Y-6972300D01*
X14353272Y-6951667D01*
X14338980Y-6917160D01*
X14304266Y-6878324D01*
X14262054Y-6858000D01*
X14304266Y-6837676D01*
X14338980Y-6798840D01*
X14353272Y-6764333D01*
X14340937Y-6743700D01*
X14236700Y-6743700D01*
X14211300Y-6743700D01*
X14107063Y-6743700D01*
X14094728Y-6764333D01*
X13931500Y-6764333D01*
X13931500Y-6510333D01*
X14094728Y-6510333D01*
X14109020Y-6544840D01*
X14143734Y-6583676D01*
X14185946Y-6604000D01*
X14143734Y-6624324D01*
X14109020Y-6663160D01*
X14094728Y-6697667D01*
X14107063Y-6718300D01*
X14211300Y-6718300D01*
X14211300Y-6613979D01*
X14194494Y-6604000D01*
X14211300Y-6594021D01*
X14211300Y-6489700D01*
X14236700Y-6489700D01*
X14236700Y-6594021D01*
X14253506Y-6604000D01*
X14236700Y-6613979D01*
X14236700Y-6718300D01*
X14340937Y-6718300D01*
X14353272Y-6697667D01*
X14350012Y-6689797D01*
X14479500Y-6689797D01*
X14479500Y-6756203D01*
X14489662Y-6807291D01*
X14518601Y-6850602D01*
X14561912Y-6879541D01*
X14613000Y-6889703D01*
X14664088Y-6879541D01*
X14707399Y-6850602D01*
X14736338Y-6807291D01*
X14738000Y-6798935D01*
X14739662Y-6807291D01*
X14768601Y-6850602D01*
X14811912Y-6879541D01*
X14863000Y-6889703D01*
X14914088Y-6879541D01*
X14957399Y-6850602D01*
X14986338Y-6807291D01*
X14996500Y-6756203D01*
X14996500Y-6689797D01*
X15229500Y-6689797D01*
X15229500Y-6756203D01*
X15239662Y-6807291D01*
X15268601Y-6850602D01*
X15311912Y-6879541D01*
X15363000Y-6889703D01*
X15414088Y-6879541D01*
X15457399Y-6850602D01*
X15486338Y-6807291D01*
X15488000Y-6798935D01*
X15489662Y-6807291D01*
X15518601Y-6850602D01*
X15561912Y-6879541D01*
X15613000Y-6889703D01*
X15664088Y-6879541D01*
X15700241Y-6855385D01*
X15868500Y-6855385D01*
X15868500Y-6860615D01*
X15878662Y-6911704D01*
X15907601Y-6955014D01*
X15950912Y-6983953D01*
X16002000Y-6994115D01*
X16053088Y-6983953D01*
X16083965Y-6963322D01*
X16373303Y-6963322D01*
X16376022Y-7020345D01*
X16392614Y-7060400D01*
X16417225Y-7067814D01*
X16500039Y-6985000D01*
X16535960Y-6985000D01*
X16618774Y-7067814D01*
X16643386Y-7060400D01*
X16662696Y-7006678D01*
X16659978Y-6949655D01*
X16643386Y-6909599D01*
X16618774Y-6902186D01*
X16535960Y-6985000D01*
X16500039Y-6985000D01*
X16417225Y-6902186D01*
X16392614Y-6909599D01*
X16373303Y-6963322D01*
X16083965Y-6963322D01*
X16096399Y-6955014D01*
X16125338Y-6911704D01*
X16130804Y-6884225D01*
X16435186Y-6884225D01*
X16518000Y-6967039D01*
X16600814Y-6884225D01*
X16593400Y-6859614D01*
X16539678Y-6840303D01*
X16482655Y-6843022D01*
X16442599Y-6859614D01*
X16435186Y-6884225D01*
X16130804Y-6884225D01*
X16135500Y-6860615D01*
X16135500Y-6855385D01*
X16125338Y-6804296D01*
X16096399Y-6760986D01*
X16053088Y-6732047D01*
X16002000Y-6721885D01*
X15950912Y-6732047D01*
X15907601Y-6760986D01*
X15878662Y-6804296D01*
X15868500Y-6855385D01*
X15700241Y-6855385D01*
X15707399Y-6850602D01*
X15736338Y-6807291D01*
X15746500Y-6756203D01*
X15746500Y-6689797D01*
X15736338Y-6638709D01*
X15707399Y-6595398D01*
X15664088Y-6566459D01*
X15613000Y-6556297D01*
X15561912Y-6566459D01*
X15518601Y-6595398D01*
X15489662Y-6638709D01*
X15488000Y-6647064D01*
X15486338Y-6638709D01*
X15457399Y-6595398D01*
X15414088Y-6566459D01*
X15363000Y-6556297D01*
X15311912Y-6566459D01*
X15268601Y-6595398D01*
X15239662Y-6638709D01*
X15229500Y-6689797D01*
X14996500Y-6689797D01*
X14986338Y-6638709D01*
X14957399Y-6595398D01*
X14914088Y-6566459D01*
X14863000Y-6556297D01*
X14811912Y-6566459D01*
X14768601Y-6595398D01*
X14739662Y-6638709D01*
X14738000Y-6647064D01*
X14736338Y-6638709D01*
X14707399Y-6595398D01*
X14664088Y-6566459D01*
X14613000Y-6556297D01*
X14561912Y-6566459D01*
X14518601Y-6595398D01*
X14489662Y-6638709D01*
X14479500Y-6689797D01*
X14350012Y-6689797D01*
X14338980Y-6663160D01*
X14304266Y-6624324D01*
X14262054Y-6604000D01*
X14304266Y-6583676D01*
X14338980Y-6544840D01*
X14353272Y-6510333D01*
X14340937Y-6489700D01*
X14236700Y-6489700D01*
X14211300Y-6489700D01*
X14107063Y-6489700D01*
X14094728Y-6510333D01*
X13931500Y-6510333D01*
X13931500Y-6256333D01*
X14094728Y-6256333D01*
X14109020Y-6290840D01*
X14143734Y-6329676D01*
X14185946Y-6350000D01*
X14143734Y-6370324D01*
X14109020Y-6409160D01*
X14094728Y-6443667D01*
X14107063Y-6464300D01*
X14211300Y-6464300D01*
X14211300Y-6359979D01*
X14194494Y-6350000D01*
X14211300Y-6340021D01*
X14211300Y-6235700D01*
X14236700Y-6235700D01*
X14236700Y-6340021D01*
X14253506Y-6350000D01*
X14236700Y-6359979D01*
X14236700Y-6464300D01*
X14340937Y-6464300D01*
X14353272Y-6443667D01*
X14338980Y-6409160D01*
X14304266Y-6370324D01*
X14262054Y-6350000D01*
X14304266Y-6329676D01*
X14338980Y-6290840D01*
X14353272Y-6256333D01*
X14953728Y-6256333D01*
X14954802Y-6262355D01*
X14979621Y-6308418D01*
X15020178Y-6341478D01*
X15070300Y-6356500D01*
X15100300Y-6356500D01*
X15100300Y-6235700D01*
X15125700Y-6235700D01*
X15125700Y-6356500D01*
X15155700Y-6356500D01*
X15205821Y-6341478D01*
X15246379Y-6308418D01*
X15271198Y-6262355D01*
X15272272Y-6256333D01*
X15259937Y-6235700D01*
X15125700Y-6235700D01*
X15100300Y-6235700D01*
X14966063Y-6235700D01*
X14953728Y-6256333D01*
X14353272Y-6256333D01*
X14340937Y-6235700D01*
X14236700Y-6235700D01*
X14211300Y-6235700D01*
X14107063Y-6235700D01*
X14094728Y-6256333D01*
X13931500Y-6256333D01*
X13931500Y-6189667D01*
X14094728Y-6189667D01*
X14107063Y-6210300D01*
X14211300Y-6210300D01*
X14211300Y-6105979D01*
X14236700Y-6105979D01*
X14236700Y-6210300D01*
X14340937Y-6210300D01*
X14353272Y-6189667D01*
X14953728Y-6189667D01*
X14966063Y-6210300D01*
X15100300Y-6210300D01*
X15100300Y-6089500D01*
X15125700Y-6089500D01*
X15125700Y-6210300D01*
X15259937Y-6210300D01*
X15272272Y-6189667D01*
X15271198Y-6183645D01*
X15246379Y-6137581D01*
X15205821Y-6104522D01*
X15155700Y-6089500D01*
X15125700Y-6089500D01*
X15100300Y-6089500D01*
X15070300Y-6089500D01*
X15020178Y-6104522D01*
X14979621Y-6137581D01*
X14954802Y-6183645D01*
X14953728Y-6189667D01*
X14353272Y-6189667D01*
X14338980Y-6155160D01*
X14304266Y-6116324D01*
X14257333Y-6093727D01*
X14236700Y-6105979D01*
X14211300Y-6105979D01*
X14190667Y-6093727D01*
X14143734Y-6116324D01*
X14109020Y-6155160D01*
X14094728Y-6189667D01*
X13931500Y-6189667D01*
X13931500Y-6057500D01*
X15873435Y-6057500D01*
X15868523Y-6069329D01*
X15868477Y-6122438D01*
X15888758Y-6171523D01*
X15926280Y-6209110D01*
X15975329Y-6229477D01*
X16028438Y-6229523D01*
X16077523Y-6209242D01*
X16115110Y-6171720D01*
X16129009Y-6138247D01*
X16142758Y-6171523D01*
X16180280Y-6209110D01*
X16213753Y-6223009D01*
X16180477Y-6236758D01*
X16142890Y-6274280D01*
X16122523Y-6323329D01*
X16122477Y-6376438D01*
X16142758Y-6425523D01*
X16180280Y-6463110D01*
X16213753Y-6477009D01*
X16180477Y-6490758D01*
X16142890Y-6528280D01*
X16122523Y-6577329D01*
X16122477Y-6630438D01*
X16142758Y-6679523D01*
X16180280Y-6717110D01*
X16229329Y-6737477D01*
X16282438Y-6737523D01*
X16331523Y-6717242D01*
X16369110Y-6679720D01*
X16389477Y-6630671D01*
X16389523Y-6577562D01*
X16369242Y-6528477D01*
X16331720Y-6490890D01*
X16298247Y-6476991D01*
X16331523Y-6463242D01*
X16369110Y-6425720D01*
X16389477Y-6376671D01*
X16389523Y-6323562D01*
X16369242Y-6274477D01*
X16331720Y-6236890D01*
X16298247Y-6222991D01*
X16331523Y-6209242D01*
X16369110Y-6171720D01*
X16389477Y-6122671D01*
X16389523Y-6069562D01*
X16384539Y-6057500D01*
X16675500Y-6057500D01*
X16675500Y-7505583D01*
X16642418Y-7538608D01*
X16620525Y-7591331D01*
X16620475Y-7648419D01*
X16642276Y-7701180D01*
X16675500Y-7734462D01*
X16675500Y-7761986D01*
X16659719Y-7772530D01*
X16628612Y-7819085D01*
X16617689Y-7874000D01*
X16628612Y-7928915D01*
X16659719Y-7975470D01*
X16697927Y-8001000D01*
X16659719Y-8026530D01*
X16628612Y-8073085D01*
X16617689Y-8128000D01*
X16628612Y-8182915D01*
X16659719Y-8229470D01*
X16697927Y-8255000D01*
X16659719Y-8280530D01*
X16628612Y-8327085D01*
X16617689Y-8382000D01*
X16628612Y-8436915D01*
X16659719Y-8483470D01*
X16697927Y-8509000D01*
X16659719Y-8534530D01*
X16628612Y-8581085D01*
X16617689Y-8636000D01*
X16628612Y-8690915D01*
X16659719Y-8737470D01*
X16697927Y-8763000D01*
X16659719Y-8788530D01*
X16628612Y-8835085D01*
X16617689Y-8890000D01*
X16628612Y-8944915D01*
X16659719Y-8991470D01*
X16697927Y-9017000D01*
X16659719Y-9042530D01*
X16628612Y-9089085D01*
X16617689Y-9144000D01*
X16628612Y-9198915D01*
X16659719Y-9245470D01*
X16697927Y-9271000D01*
X16659719Y-9296530D01*
X16628612Y-9343085D01*
X16617689Y-9398000D01*
X16628612Y-9452915D01*
X16659719Y-9499470D01*
X16697927Y-9525000D01*
X16659719Y-9550530D01*
X16628612Y-9597085D01*
X16617689Y-9652000D01*
X16628612Y-9706915D01*
X16659719Y-9753470D01*
X16706274Y-9784577D01*
X16761189Y-9795500D01*
X16766811Y-9795500D01*
X16821726Y-9784577D01*
X16868281Y-9753470D01*
X16899388Y-9706915D01*
X16903368Y-9686904D01*
X17132810Y-9686904D01*
X17148896Y-9725742D01*
X17186487Y-9767239D01*
X17237096Y-9791191D01*
X17259300Y-9779063D01*
X17259300Y-9664700D01*
X17284700Y-9664700D01*
X17284700Y-9779063D01*
X17306904Y-9791191D01*
X17357513Y-9767239D01*
X17395104Y-9725742D01*
X17411190Y-9686904D01*
X17398992Y-9664700D01*
X17284700Y-9664700D01*
X17259300Y-9664700D01*
X17145009Y-9664700D01*
X17132810Y-9686904D01*
X16903368Y-9686904D01*
X16910311Y-9652000D01*
X16899388Y-9597085D01*
X16868281Y-9550530D01*
X16830073Y-9525000D01*
X16868281Y-9499470D01*
X16899388Y-9452915D01*
X16910311Y-9398000D01*
X16899388Y-9343085D01*
X16868281Y-9296530D01*
X16830073Y-9271000D01*
X16868281Y-9245470D01*
X16899388Y-9198915D01*
X16910311Y-9144000D01*
X16899388Y-9089085D01*
X16868281Y-9042530D01*
X16830073Y-9017000D01*
X16868281Y-8991470D01*
X16899388Y-8944915D01*
X16910311Y-8890000D01*
X16899388Y-8835085D01*
X16868281Y-8788530D01*
X16830073Y-8763000D01*
X16868281Y-8737470D01*
X16899388Y-8690915D01*
X16910311Y-8636000D01*
X16899388Y-8581085D01*
X16868281Y-8534530D01*
X16830073Y-8509000D01*
X16868281Y-8483470D01*
X16899388Y-8436915D01*
X16910311Y-8382000D01*
X17125689Y-8382000D01*
X17136612Y-8436915D01*
X17167719Y-8483470D01*
X17205928Y-8509000D01*
X17167719Y-8534530D01*
X17136612Y-8581085D01*
X17125689Y-8636000D01*
X17136612Y-8690915D01*
X17167719Y-8737470D01*
X17205928Y-8763000D01*
X17167719Y-8788530D01*
X17136612Y-8835085D01*
X17125689Y-8890000D01*
X17136612Y-8944915D01*
X17167719Y-8991470D01*
X17205928Y-9017000D01*
X17167719Y-9042530D01*
X17136612Y-9089085D01*
X17125689Y-9144000D01*
X17136612Y-9198915D01*
X17167719Y-9245470D01*
X17205928Y-9271000D01*
X17167719Y-9296530D01*
X17136612Y-9343085D01*
X17125689Y-9398000D01*
X17136612Y-9452915D01*
X17167719Y-9499470D01*
X17208170Y-9526499D01*
X17186487Y-9536761D01*
X17148896Y-9578258D01*
X17132810Y-9617096D01*
X17145009Y-9639300D01*
X17259300Y-9639300D01*
X17259300Y-9637300D01*
X17284700Y-9637300D01*
X17284700Y-9639300D01*
X17398992Y-9639300D01*
X17411190Y-9617096D01*
X17395104Y-9578258D01*
X17357513Y-9536761D01*
X17335830Y-9526499D01*
X17376281Y-9499470D01*
X17407388Y-9452915D01*
X17418311Y-9398000D01*
X17407388Y-9343085D01*
X17376281Y-9296530D01*
X17338073Y-9271000D01*
X17376281Y-9245470D01*
X17407388Y-9198915D01*
X17418311Y-9144000D01*
X17407388Y-9089085D01*
X17376281Y-9042530D01*
X17338073Y-9017000D01*
X17376281Y-8991470D01*
X17407388Y-8944915D01*
X17418311Y-8890000D01*
X17407388Y-8835085D01*
X17376281Y-8788530D01*
X17338073Y-8763000D01*
X17376281Y-8737470D01*
X17407388Y-8690915D01*
X17418311Y-8636000D01*
X17407388Y-8581085D01*
X17376281Y-8534530D01*
X17338073Y-8509000D01*
X17376281Y-8483470D01*
X17407388Y-8436915D01*
X17418311Y-8382000D01*
X17407388Y-8327085D01*
X17376281Y-8280530D01*
X17361854Y-8270890D01*
X17375532Y-8268316D01*
X17397144Y-8254409D01*
X17411643Y-8233189D01*
X17416744Y-8208000D01*
X17416744Y-8048000D01*
X17412316Y-8024468D01*
X17398409Y-8002856D01*
X17377189Y-7988357D01*
X17352000Y-7983256D01*
X17192000Y-7983256D01*
X17168468Y-7987684D01*
X17146856Y-8001591D01*
X17132357Y-8022811D01*
X17127256Y-8048000D01*
X17127256Y-8208000D01*
X17131684Y-8231532D01*
X17145591Y-8253144D01*
X17166811Y-8267643D01*
X17182309Y-8270781D01*
X17167719Y-8280530D01*
X17136612Y-8327085D01*
X17125689Y-8382000D01*
X16910311Y-8382000D01*
X16899388Y-8327085D01*
X16868281Y-8280530D01*
X16830073Y-8255000D01*
X16868281Y-8229470D01*
X16899388Y-8182915D01*
X16910311Y-8128000D01*
X16899388Y-8073085D01*
X16868281Y-8026530D01*
X16830073Y-8001000D01*
X16868281Y-7975470D01*
X16899388Y-7928915D01*
X16910311Y-7874000D01*
X16899388Y-7819085D01*
X16868281Y-7772530D01*
X16852500Y-7761986D01*
X16852500Y-7734417D01*
X16885582Y-7701392D01*
X16907475Y-7648669D01*
X16907525Y-7591581D01*
X16885724Y-7538820D01*
X16852500Y-7505538D01*
X16852500Y-7500428D01*
X17387476Y-7500428D01*
X17408517Y-7551351D01*
X17447444Y-7590346D01*
X17498330Y-7611476D01*
X17553429Y-7611524D01*
X17604352Y-7590483D01*
X17643346Y-7551556D01*
X17664476Y-7500670D01*
X17664524Y-7445571D01*
X17643483Y-7394648D01*
X17604556Y-7355654D01*
X17553670Y-7334524D01*
X17498572Y-7334476D01*
X17447649Y-7355517D01*
X17408654Y-7394444D01*
X17387524Y-7445330D01*
X17387476Y-7500428D01*
X16852500Y-7500428D01*
X16852500Y-7013419D01*
X16874475Y-7013419D01*
X16896276Y-7066180D01*
X16936608Y-7106582D01*
X16949622Y-7111986D01*
X16936820Y-7117276D01*
X16896418Y-7157608D01*
X16874525Y-7210331D01*
X16874475Y-7267419D01*
X16896276Y-7320180D01*
X16936608Y-7360582D01*
X16989331Y-7382475D01*
X17046419Y-7382525D01*
X17099180Y-7360724D01*
X17139582Y-7320392D01*
X17161475Y-7267669D01*
X17161525Y-7210581D01*
X17139724Y-7157820D01*
X17099392Y-7117418D01*
X17086379Y-7112014D01*
X17099180Y-7106724D01*
X17139582Y-7066392D01*
X17161475Y-7013669D01*
X17161476Y-7012428D01*
X17387476Y-7012428D01*
X17408517Y-7063351D01*
X17447444Y-7102346D01*
X17498330Y-7123476D01*
X17553429Y-7123524D01*
X17604352Y-7102483D01*
X17643346Y-7063556D01*
X17664476Y-7012670D01*
X17664524Y-6957571D01*
X17643483Y-6906648D01*
X17604556Y-6867654D01*
X17553670Y-6846524D01*
X17498572Y-6846476D01*
X17447649Y-6867517D01*
X17408654Y-6906444D01*
X17387524Y-6957330D01*
X17387476Y-7012428D01*
X17161476Y-7012428D01*
X17161525Y-6956581D01*
X17139724Y-6903820D01*
X17099392Y-6863418D01*
X17046669Y-6841525D01*
X16989581Y-6841475D01*
X16936820Y-6863276D01*
X16896418Y-6903608D01*
X16874525Y-6956331D01*
X16874475Y-7013419D01*
X16852500Y-7013419D01*
X16852500Y-6057500D01*
X16889543Y-6057500D01*
X16881885Y-6096000D01*
X16892047Y-6147088D01*
X16920986Y-6190399D01*
X16964296Y-6219338D01*
X16982707Y-6223000D01*
X16964296Y-6226662D01*
X16920986Y-6255601D01*
X16892047Y-6298912D01*
X16881885Y-6350000D01*
X16892047Y-6401088D01*
X16920986Y-6444399D01*
X16964296Y-6473338D01*
X16982707Y-6477000D01*
X16964296Y-6480662D01*
X16920986Y-6509601D01*
X16892047Y-6552912D01*
X16881885Y-6604000D01*
X16892047Y-6655088D01*
X16920986Y-6698399D01*
X16964296Y-6727338D01*
X17015385Y-6737500D01*
X17020615Y-6737500D01*
X17071704Y-6727338D01*
X17115014Y-6698399D01*
X17143953Y-6655088D01*
X17154115Y-6604000D01*
X17143953Y-6552912D01*
X17115014Y-6509601D01*
X17071704Y-6480662D01*
X17053293Y-6477000D01*
X17071704Y-6473338D01*
X17115014Y-6444399D01*
X17143953Y-6401088D01*
X17154115Y-6350000D01*
X17143953Y-6298912D01*
X17115014Y-6255601D01*
X17108989Y-6251575D01*
X17372500Y-6251575D01*
X17372500Y-6325631D01*
X17382167Y-6348970D01*
X17400030Y-6366833D01*
X17423369Y-6376500D01*
X17497425Y-6376500D01*
X17513300Y-6360625D01*
X17513300Y-6235700D01*
X17388375Y-6235700D01*
X17372500Y-6251575D01*
X17108989Y-6251575D01*
X17071704Y-6226662D01*
X17053293Y-6223000D01*
X17071704Y-6219338D01*
X17115014Y-6190399D01*
X17143953Y-6147088D01*
X17149268Y-6120369D01*
X17372500Y-6120369D01*
X17372500Y-6194425D01*
X17388375Y-6210300D01*
X17513300Y-6210300D01*
X17513300Y-6085375D01*
X17538700Y-6085375D01*
X17538700Y-6210300D01*
X17540700Y-6210300D01*
X17540700Y-6235700D01*
X17538700Y-6235700D01*
X17538700Y-6360625D01*
X17554575Y-6376500D01*
X17628631Y-6376500D01*
X17651970Y-6366833D01*
X17669833Y-6348970D01*
X17675412Y-6335501D01*
X17692936Y-6353055D01*
X17749333Y-6376473D01*
X17810399Y-6376526D01*
X17866837Y-6353207D01*
X17910055Y-6310064D01*
X17933473Y-6253667D01*
X17933527Y-6192601D01*
X17910207Y-6136163D01*
X17867064Y-6092945D01*
X17810667Y-6069527D01*
X17749601Y-6069473D01*
X17693163Y-6092793D01*
X17675416Y-6110509D01*
X17669833Y-6097030D01*
X17651970Y-6079167D01*
X17628631Y-6069500D01*
X17554575Y-6069500D01*
X17538700Y-6085375D01*
X17513300Y-6085375D01*
X17497425Y-6069500D01*
X17423369Y-6069500D01*
X17400030Y-6079167D01*
X17382167Y-6097030D01*
X17372500Y-6120369D01*
X17149268Y-6120369D01*
X17154115Y-6096000D01*
X17146457Y-6057500D01*
X17933713Y-6057500D01*
X17958280Y-6082110D01*
X18007329Y-6102477D01*
X18060438Y-6102523D01*
X18109523Y-6082242D01*
X18134308Y-6057500D01*
X18251342Y-6057500D01*
X18326500Y-6132658D01*
X18326500Y-6856435D01*
X18314671Y-6851523D01*
X18261562Y-6851477D01*
X18212477Y-6871758D01*
X18174890Y-6909280D01*
X18160062Y-6944990D01*
X18157338Y-6931296D01*
X18128399Y-6887986D01*
X18085088Y-6859047D01*
X18079826Y-6858000D01*
X18085088Y-6856953D01*
X18128399Y-6828014D01*
X18157338Y-6784704D01*
X18167500Y-6733615D01*
X18167500Y-6728385D01*
X18157338Y-6677296D01*
X18128399Y-6633986D01*
X18085088Y-6605047D01*
X18034000Y-6594885D01*
X17982912Y-6605047D01*
X17939601Y-6633986D01*
X17910662Y-6677296D01*
X17900500Y-6728385D01*
X17900500Y-6733615D01*
X17910662Y-6784704D01*
X17939601Y-6828014D01*
X17982912Y-6856953D01*
X17988174Y-6858000D01*
X17982912Y-6859047D01*
X17939601Y-6887986D01*
X17910662Y-6931296D01*
X17900500Y-6982385D01*
X17900500Y-6987615D01*
X17910662Y-7038704D01*
X17939601Y-7082014D01*
X17982912Y-7110953D01*
X18034000Y-7121115D01*
X18085088Y-7110953D01*
X18128399Y-7082014D01*
X18157338Y-7038704D01*
X18160069Y-7024973D01*
X18174758Y-7060523D01*
X18212280Y-7098110D01*
X18261329Y-7118477D01*
X18314438Y-7118523D01*
X18326500Y-7113539D01*
X18326500Y-7618543D01*
X18288000Y-7610885D01*
X18236912Y-7621047D01*
X18193601Y-7649986D01*
X18164662Y-7693296D01*
X18161931Y-7707027D01*
X18147242Y-7671477D01*
X18109720Y-7633890D01*
X18060671Y-7613523D01*
X18007562Y-7613477D01*
X17958477Y-7633758D01*
X17920890Y-7671280D01*
X17900523Y-7720329D01*
X17900477Y-7773438D01*
X17920758Y-7822523D01*
X17958280Y-7860110D01*
X18007329Y-7880477D01*
X18060438Y-7880523D01*
X18109523Y-7860242D01*
X18147110Y-7822720D01*
X18161938Y-7787010D01*
X18164662Y-7800704D01*
X18193601Y-7844014D01*
X18236912Y-7872953D01*
X18288000Y-7883115D01*
X18326500Y-7875457D01*
X18326500Y-7964342D01*
X18306326Y-7984516D01*
X18259581Y-7984475D01*
X18206820Y-8006276D01*
X18173538Y-8039500D01*
X18146947Y-8039500D01*
X18138281Y-8026530D01*
X18091726Y-7995423D01*
X18036811Y-7984500D01*
X18031189Y-7984500D01*
X17976274Y-7995423D01*
X17929719Y-8026530D01*
X17898612Y-8073085D01*
X17887689Y-8128000D01*
X17898612Y-8182915D01*
X17929719Y-8229470D01*
X17967928Y-8255000D01*
X17929719Y-8280530D01*
X17898612Y-8327085D01*
X17887689Y-8382000D01*
X17898612Y-8436915D01*
X17929719Y-8483470D01*
X17967928Y-8509000D01*
X17929719Y-8534530D01*
X17898612Y-8581085D01*
X17887689Y-8636000D01*
X17898612Y-8690915D01*
X17929719Y-8737470D01*
X17967928Y-8763000D01*
X17929719Y-8788530D01*
X17898612Y-8835085D01*
X17887689Y-8890000D01*
X17898612Y-8944915D01*
X17929719Y-8991470D01*
X17967928Y-9017000D01*
X17929719Y-9042530D01*
X17898612Y-9089085D01*
X17887689Y-9144000D01*
X17898612Y-9198915D01*
X17929719Y-9245470D01*
X17967928Y-9271000D01*
X17929719Y-9296530D01*
X17898612Y-9343085D01*
X17887689Y-9398000D01*
X17898612Y-9452915D01*
X17929719Y-9499470D01*
X17967928Y-9525000D01*
X17929719Y-9550530D01*
X17898612Y-9597085D01*
X17887689Y-9652000D01*
X17898612Y-9706915D01*
X17929719Y-9753470D01*
X17976274Y-9784577D01*
X18031189Y-9795500D01*
X18036811Y-9795500D01*
X18091726Y-9784577D01*
X18138281Y-9753470D01*
X18169388Y-9706915D01*
X18180311Y-9652000D01*
X18169388Y-9597085D01*
X18138281Y-9550530D01*
X18100073Y-9525000D01*
X18138281Y-9499470D01*
X18169388Y-9452915D01*
X18180311Y-9398000D01*
X18169388Y-9343085D01*
X18138281Y-9296530D01*
X18100073Y-9271000D01*
X18138281Y-9245470D01*
X18169388Y-9198915D01*
X18180311Y-9144000D01*
X18169388Y-9089085D01*
X18138281Y-9042530D01*
X18100073Y-9017000D01*
X18138281Y-8991470D01*
X18169388Y-8944915D01*
X18180311Y-8890000D01*
X18169388Y-8835085D01*
X18138281Y-8788530D01*
X18100073Y-8763000D01*
X18138281Y-8737470D01*
X18144091Y-8728775D01*
X18205186Y-8728775D01*
X18212600Y-8753386D01*
X18266322Y-8772697D01*
X18323345Y-8769978D01*
X18363401Y-8753386D01*
X18370814Y-8728775D01*
X18288000Y-8645961D01*
X18205186Y-8728775D01*
X18144091Y-8728775D01*
X18162014Y-8701952D01*
X18162614Y-8703401D01*
X18187226Y-8710814D01*
X18270040Y-8628000D01*
X18305961Y-8628000D01*
X18388775Y-8710814D01*
X18413386Y-8703401D01*
X18432697Y-8649678D01*
X18429978Y-8592655D01*
X18413386Y-8552600D01*
X18388775Y-8545186D01*
X18305961Y-8628000D01*
X18270040Y-8628000D01*
X18187226Y-8545186D01*
X18162614Y-8552600D01*
X18158326Y-8564529D01*
X18138281Y-8534530D01*
X18127349Y-8527226D01*
X18205186Y-8527226D01*
X18288000Y-8610040D01*
X18370814Y-8527226D01*
X18363401Y-8502614D01*
X18309678Y-8483304D01*
X18252655Y-8486022D01*
X18212600Y-8502614D01*
X18205186Y-8527226D01*
X18127349Y-8527226D01*
X18100073Y-8509000D01*
X18138281Y-8483470D01*
X18169388Y-8436915D01*
X18180311Y-8382000D01*
X18169388Y-8327085D01*
X18138281Y-8280530D01*
X18100073Y-8255000D01*
X18138281Y-8229470D01*
X18146947Y-8216500D01*
X18173583Y-8216500D01*
X18206608Y-8249582D01*
X18259331Y-8271475D01*
X18316419Y-8271525D01*
X18369180Y-8249724D01*
X18409582Y-8209392D01*
X18431475Y-8156669D01*
X18431516Y-8109642D01*
X18471000Y-8070158D01*
X18471000Y-10274300D01*
X18404037Y-10274300D01*
X18395763Y-10261917D01*
X18346321Y-10228881D01*
X18288000Y-10217280D01*
X18229679Y-10228881D01*
X18180237Y-10261917D01*
X18171963Y-10274300D01*
X18150037Y-10274300D01*
X18141763Y-10261917D01*
X18092321Y-10228881D01*
X18034000Y-10217280D01*
X17975679Y-10228881D01*
X17926237Y-10261917D01*
X17917963Y-10274300D01*
X17896037Y-10274300D01*
X17887763Y-10261917D01*
X17838321Y-10228881D01*
X17780000Y-10217280D01*
X17721679Y-10228881D01*
X17672237Y-10261917D01*
X17663963Y-10274300D01*
X17642037Y-10274300D01*
X17633763Y-10261917D01*
X17584321Y-10228881D01*
X17526000Y-10217280D01*
X17467679Y-10228881D01*
X17418237Y-10261917D01*
X17409963Y-10274300D01*
X17388037Y-10274300D01*
X17379763Y-10261917D01*
X17330321Y-10228881D01*
X17272000Y-10217280D01*
X17213679Y-10228881D01*
X17164237Y-10261917D01*
X17155963Y-10274300D01*
X17134037Y-10274300D01*
X17125763Y-10261917D01*
X17076321Y-10228881D01*
X17018000Y-10217280D01*
X16959679Y-10228881D01*
X16910237Y-10261917D01*
X16901963Y-10274300D01*
X16880037Y-10274300D01*
X16871763Y-10261917D01*
X16822321Y-10228881D01*
X16764000Y-10217280D01*
X16705679Y-10228881D01*
X16656237Y-10261917D01*
X16647963Y-10274300D01*
X16626037Y-10274300D01*
X16617763Y-10261917D01*
X16568321Y-10228881D01*
X16510000Y-10217280D01*
X16451679Y-10228881D01*
X16402237Y-10261917D01*
X16393963Y-10274300D01*
X16372037Y-10274300D01*
X16363763Y-10261917D01*
X16314321Y-10228881D01*
X16256000Y-10217280D01*
X16234531Y-10221550D01*
X15992240Y-9979260D01*
X15967584Y-9962785D01*
X15938500Y-9957000D01*
X15550246Y-9957000D01*
X15547033Y-9953781D01*
X15512680Y-9939516D01*
X15475483Y-9939484D01*
X15441106Y-9953688D01*
X15414781Y-9979967D01*
X15400516Y-10014320D01*
X15400484Y-10051517D01*
X15414688Y-10085894D01*
X15440967Y-10112219D01*
X15475320Y-10126484D01*
X15512517Y-10126516D01*
X15546894Y-10112312D01*
X15550212Y-10109000D01*
X15907020Y-10109000D01*
X16018602Y-10220582D01*
X16002000Y-10217280D01*
X15943679Y-10228881D01*
X15894237Y-10261917D01*
X15885963Y-10274300D01*
X15864037Y-10274300D01*
X15855763Y-10261917D01*
X15806321Y-10228881D01*
X15748000Y-10217280D01*
X15689679Y-10228881D01*
X15640237Y-10261917D01*
X15631963Y-10274300D01*
X15610037Y-10274300D01*
X15601763Y-10261917D01*
X15552321Y-10228881D01*
X15494000Y-10217280D01*
X15435679Y-10228881D01*
X15386237Y-10261917D01*
X15377963Y-10274300D01*
X15356037Y-10274300D01*
X15347763Y-10261917D01*
X15298321Y-10228881D01*
X15240000Y-10217280D01*
X15181679Y-10228881D01*
X15132237Y-10261917D01*
X15123963Y-10274300D01*
X15102037Y-10274300D01*
X15093763Y-10261917D01*
X15044321Y-10228881D01*
X14986000Y-10217280D01*
X14927679Y-10228881D01*
X14878237Y-10261917D01*
X14869963Y-10274300D01*
X14842834Y-10274300D01*
X14830783Y-10259157D01*
X14778588Y-10230241D01*
X14768301Y-10227887D01*
X14744700Y-10239967D01*
X14744700Y-10274300D01*
X14719300Y-10274300D01*
X14719300Y-10239967D01*
X14695699Y-10227887D01*
X14685412Y-10230241D01*
X14633217Y-10259157D01*
X14621166Y-10274300D01*
X14594037Y-10274300D01*
X14585763Y-10261917D01*
X14536321Y-10228881D01*
X14478000Y-10217280D01*
X14419679Y-10228881D01*
X14370237Y-10261917D01*
X14361963Y-10274300D01*
X14340037Y-10274300D01*
X14331763Y-10261917D01*
X14282321Y-10228881D01*
X14233560Y-10219181D01*
X14239719Y-10213033D01*
X14253984Y-10178680D01*
X14254016Y-10141483D01*
X14239812Y-10107106D01*
X14213533Y-10080781D01*
X14187145Y-10069824D01*
X14176312Y-10043606D01*
X14150033Y-10017281D01*
X14115680Y-10003016D01*
X14078483Y-10002984D01*
X14044106Y-10017188D01*
X14040788Y-10020500D01*
X13716000Y-10020500D01*
X13691741Y-10025325D01*
X13686916Y-10026285D01*
X13662260Y-10042760D01*
X13483469Y-10221550D01*
X13462000Y-10217280D01*
X13403679Y-10228881D01*
X13354237Y-10261917D01*
X13345963Y-10274300D01*
X13324037Y-10274300D01*
X13315763Y-10261917D01*
X13266321Y-10228881D01*
X13208000Y-10217280D01*
X13149679Y-10228881D01*
X13100237Y-10261917D01*
X13091963Y-10274300D01*
X13064834Y-10274300D01*
X13052783Y-10259157D01*
X13000588Y-10230241D01*
X12990301Y-10227887D01*
X12966700Y-10239967D01*
X12966700Y-10274300D01*
X12941300Y-10274300D01*
X12941300Y-10239967D01*
X12917699Y-10227887D01*
X12907412Y-10230241D01*
X12855217Y-10259157D01*
X12843166Y-10274300D01*
X12810834Y-10274300D01*
X12798783Y-10259157D01*
X12746588Y-10230241D01*
X12736301Y-10227887D01*
X12712700Y-10239967D01*
X12712700Y-10274300D01*
X12687300Y-10274300D01*
X12687300Y-10239967D01*
X12663699Y-10227887D01*
X12653412Y-10230241D01*
X12601217Y-10259157D01*
X12589166Y-10274300D01*
X12308037Y-10274300D01*
X12299763Y-10261917D01*
X12250321Y-10228881D01*
X12192000Y-10217280D01*
X12133679Y-10228881D01*
X12084237Y-10261917D01*
X12075963Y-10274300D01*
X12054037Y-10274300D01*
X12045763Y-10261917D01*
X12026500Y-10249046D01*
X12026500Y-10160001D01*
X12026500Y-10160000D01*
X12019763Y-10126133D01*
X12012336Y-10115017D01*
X12000579Y-10097421D01*
X12000579Y-10097421D01*
X11873579Y-9970421D01*
X11870822Y-9968579D01*
X11844867Y-9951237D01*
X11839248Y-9950119D01*
X11811000Y-9944500D01*
X11810999Y-9944500D01*
X11466658Y-9944500D01*
X11404658Y-9882500D01*
X17931167Y-9882500D01*
X17931167Y-10194500D01*
X18351500Y-10194500D01*
X18351500Y-9882500D01*
X17931167Y-9882500D01*
X11404658Y-9882500D01*
X11391500Y-9869342D01*
X11391500Y-9788401D01*
X11427189Y-9795500D01*
X11432811Y-9795500D01*
X11487726Y-9784577D01*
X11534281Y-9753470D01*
X11565388Y-9706915D01*
X11576311Y-9652000D01*
X11565388Y-9597085D01*
X11534281Y-9550530D01*
X11496072Y-9525000D01*
X11534281Y-9499470D01*
X11565388Y-9452915D01*
X11576311Y-9398000D01*
X11565388Y-9343085D01*
X11534281Y-9296530D01*
X11496072Y-9271000D01*
X11534281Y-9245470D01*
X11565388Y-9198915D01*
X11576311Y-9144000D01*
X11565388Y-9089085D01*
X11534281Y-9042530D01*
X11496072Y-9017000D01*
X11534281Y-8991470D01*
X11565388Y-8944915D01*
X11576311Y-8890000D01*
X11565388Y-8835085D01*
X11534281Y-8788530D01*
X11496072Y-8763000D01*
X11534281Y-8737470D01*
X11565388Y-8690915D01*
X11576311Y-8636000D01*
X11565388Y-8581085D01*
X11534281Y-8534530D01*
X11496072Y-8509000D01*
X11534281Y-8483470D01*
X11565388Y-8436915D01*
X11576311Y-8382000D01*
X11565388Y-8327085D01*
X11534281Y-8280530D01*
X11496072Y-8255000D01*
X11534281Y-8229470D01*
X11565388Y-8182915D01*
X11576311Y-8128000D01*
X11565388Y-8073085D01*
X11534281Y-8026530D01*
X11523785Y-8019517D01*
X12034984Y-8019517D01*
X12049188Y-8053894D01*
X12075467Y-8080219D01*
X12109820Y-8094484D01*
X12147017Y-8094516D01*
X12172543Y-8083969D01*
X12162016Y-8109320D01*
X12161984Y-8146517D01*
X12176188Y-8180894D01*
X12202467Y-8207219D01*
X12236820Y-8221484D01*
X12274017Y-8221516D01*
X12308394Y-8207312D01*
X12311712Y-8204000D01*
X12619937Y-8204000D01*
X12606516Y-8236320D01*
X12606484Y-8273517D01*
X12620688Y-8307894D01*
X12646967Y-8334219D01*
X12681320Y-8348484D01*
X12718517Y-8348516D01*
X12752894Y-8334312D01*
X12756212Y-8331000D01*
X12817833Y-8331000D01*
X12807689Y-8382000D01*
X12817357Y-8430607D01*
X12816533Y-8429781D01*
X12782180Y-8415516D01*
X12744983Y-8415484D01*
X12710606Y-8429688D01*
X12684281Y-8455967D01*
X12670016Y-8490320D01*
X12669984Y-8527517D01*
X12684188Y-8561894D01*
X12710467Y-8588219D01*
X12744820Y-8602484D01*
X12782017Y-8602516D01*
X12816394Y-8588312D01*
X12817368Y-8587340D01*
X12807689Y-8636000D01*
X12818612Y-8690915D01*
X12849719Y-8737470D01*
X12887927Y-8763000D01*
X12849719Y-8788530D01*
X12818612Y-8835085D01*
X12807689Y-8890000D01*
X12818612Y-8944915D01*
X12849719Y-8991470D01*
X12887927Y-9017000D01*
X12849719Y-9042530D01*
X12818612Y-9089085D01*
X12807689Y-9144000D01*
X12818612Y-9198915D01*
X12849719Y-9245470D01*
X12887927Y-9271000D01*
X12849719Y-9296530D01*
X12818612Y-9343085D01*
X12807689Y-9398000D01*
X12818612Y-9452915D01*
X12849719Y-9499470D01*
X12887927Y-9525000D01*
X12849719Y-9550530D01*
X12818612Y-9597085D01*
X12807689Y-9652000D01*
X12818612Y-9706915D01*
X12849719Y-9753470D01*
X12896274Y-9784577D01*
X12951189Y-9795500D01*
X12956811Y-9795500D01*
X13011726Y-9784577D01*
X13058281Y-9753470D01*
X13089388Y-9706915D01*
X13093368Y-9686904D01*
X13322810Y-9686904D01*
X13338896Y-9725742D01*
X13376487Y-9767239D01*
X13427096Y-9791191D01*
X13449300Y-9779063D01*
X13449300Y-9664700D01*
X13474700Y-9664700D01*
X13474700Y-9779063D01*
X13496904Y-9791191D01*
X13547513Y-9767239D01*
X13585104Y-9725742D01*
X13601190Y-9686904D01*
X13588991Y-9664700D01*
X13474700Y-9664700D01*
X13449300Y-9664700D01*
X13335008Y-9664700D01*
X13322810Y-9686904D01*
X13093368Y-9686904D01*
X13100311Y-9652000D01*
X13089388Y-9597085D01*
X13058281Y-9550530D01*
X13020072Y-9525000D01*
X13058281Y-9499470D01*
X13089388Y-9452915D01*
X13100311Y-9398000D01*
X13089388Y-9343085D01*
X13058281Y-9296530D01*
X13020072Y-9271000D01*
X13058281Y-9245470D01*
X13089388Y-9198915D01*
X13100311Y-9144000D01*
X13089388Y-9089085D01*
X13058281Y-9042530D01*
X13020072Y-9017000D01*
X13058281Y-8991470D01*
X13089388Y-8944915D01*
X13100311Y-8890000D01*
X13089388Y-8835085D01*
X13058281Y-8788530D01*
X13020072Y-8763000D01*
X13058281Y-8737470D01*
X13089388Y-8690915D01*
X13100311Y-8636000D01*
X13090167Y-8585000D01*
X13240020Y-8585000D01*
X13259000Y-8603980D01*
X13259000Y-9017000D01*
X13264785Y-9046084D01*
X13281260Y-9070740D01*
X13322131Y-9111611D01*
X13315689Y-9144000D01*
X13326612Y-9198915D01*
X13357719Y-9245470D01*
X13395927Y-9271000D01*
X13357719Y-9296530D01*
X13326612Y-9343085D01*
X13315689Y-9398000D01*
X13326612Y-9452915D01*
X13357719Y-9499470D01*
X13398170Y-9526499D01*
X13376487Y-9536761D01*
X13338896Y-9578258D01*
X13322810Y-9617096D01*
X13335008Y-9639300D01*
X13449300Y-9639300D01*
X13449300Y-9637300D01*
X13474700Y-9637300D01*
X13474700Y-9639300D01*
X13588991Y-9639300D01*
X13601190Y-9617096D01*
X13585104Y-9578258D01*
X13547513Y-9536761D01*
X13525830Y-9526499D01*
X13566281Y-9499470D01*
X13597388Y-9452915D01*
X13608311Y-9398000D01*
X13597388Y-9343085D01*
X13566281Y-9296530D01*
X13528072Y-9271000D01*
X13566281Y-9245470D01*
X13597388Y-9198915D01*
X13608311Y-9144000D01*
X13597388Y-9089085D01*
X13566281Y-9042530D01*
X13528072Y-9017000D01*
X13566281Y-8991470D01*
X13597388Y-8944915D01*
X13608311Y-8890000D01*
X13601869Y-8857611D01*
X13642740Y-8816740D01*
X13659215Y-8792084D01*
X13665000Y-8763000D01*
X13665000Y-8255000D01*
X13659215Y-8225916D01*
X13659215Y-8225916D01*
X13642740Y-8201260D01*
X13606744Y-8165264D01*
X13606744Y-8048000D01*
X13602316Y-8024468D01*
X13588409Y-8002856D01*
X13567189Y-7988357D01*
X13542000Y-7983256D01*
X13382000Y-7983256D01*
X13358468Y-7987684D01*
X13336856Y-8001591D01*
X13322357Y-8022811D01*
X13317256Y-8048000D01*
X13317256Y-8179000D01*
X13090167Y-8179000D01*
X13100311Y-8128000D01*
X13090643Y-8079393D01*
X13091467Y-8080219D01*
X13125820Y-8094484D01*
X13163017Y-8094516D01*
X13197394Y-8080312D01*
X13223719Y-8054033D01*
X13237984Y-8019680D01*
X13238016Y-7982483D01*
X13234831Y-7974774D01*
X13641186Y-7974774D01*
X13648599Y-7999386D01*
X13702322Y-8018696D01*
X13759345Y-8015978D01*
X13799400Y-7999386D01*
X13806814Y-7974774D01*
X13724000Y-7891960D01*
X13641186Y-7974774D01*
X13234831Y-7974774D01*
X13223812Y-7948106D01*
X13197533Y-7921781D01*
X13163180Y-7907516D01*
X13125983Y-7907484D01*
X13091606Y-7921688D01*
X13090632Y-7922660D01*
X13100311Y-7874000D01*
X13095999Y-7852322D01*
X13579303Y-7852322D01*
X13582022Y-7909345D01*
X13598614Y-7949400D01*
X13623225Y-7956814D01*
X13706039Y-7874000D01*
X13741960Y-7874000D01*
X13824774Y-7956814D01*
X13849386Y-7949400D01*
X13868696Y-7895678D01*
X13865978Y-7838655D01*
X13849386Y-7798599D01*
X13824774Y-7791186D01*
X13741960Y-7874000D01*
X13706039Y-7874000D01*
X13623225Y-7791186D01*
X13598614Y-7798599D01*
X13579303Y-7852322D01*
X13095999Y-7852322D01*
X13090643Y-7825393D01*
X13091467Y-7826219D01*
X13125820Y-7840484D01*
X13163017Y-7840516D01*
X13197394Y-7826312D01*
X13223719Y-7800033D01*
X13234850Y-7773225D01*
X13641186Y-7773225D01*
X13724000Y-7856039D01*
X13806814Y-7773225D01*
X13799400Y-7748614D01*
X13745678Y-7729303D01*
X13688655Y-7732022D01*
X13648599Y-7748614D01*
X13641186Y-7773225D01*
X13234850Y-7773225D01*
X13237984Y-7765680D01*
X13238016Y-7728483D01*
X13223812Y-7694106D01*
X13197533Y-7667781D01*
X13163180Y-7653516D01*
X13125983Y-7653484D01*
X13091606Y-7667688D01*
X13090632Y-7668660D01*
X13100311Y-7620000D01*
X13089388Y-7565085D01*
X13058281Y-7518530D01*
X13020072Y-7493000D01*
X13058281Y-7467470D01*
X13089388Y-7420915D01*
X13100311Y-7366000D01*
X13089388Y-7311085D01*
X13058281Y-7264530D01*
X13020072Y-7239000D01*
X13058281Y-7213470D01*
X13089388Y-7166915D01*
X13100311Y-7112000D01*
X13089388Y-7057085D01*
X13058281Y-7010530D01*
X13020072Y-6985000D01*
X13058281Y-6959470D01*
X13089388Y-6912915D01*
X13100311Y-6858000D01*
X13089388Y-6803085D01*
X13058281Y-6756530D01*
X13020072Y-6731000D01*
X13058281Y-6705470D01*
X13089388Y-6658915D01*
X13100311Y-6604000D01*
X13089388Y-6549085D01*
X13058281Y-6502530D01*
X13020072Y-6477000D01*
X13058281Y-6451470D01*
X13089388Y-6404915D01*
X13100311Y-6350000D01*
X13089388Y-6295085D01*
X13058888Y-6249438D01*
X13328477Y-6249438D01*
X13348758Y-6298523D01*
X13386280Y-6336110D01*
X13419753Y-6350009D01*
X13386477Y-6363758D01*
X13348890Y-6401280D01*
X13328523Y-6450329D01*
X13328477Y-6503438D01*
X13348758Y-6552523D01*
X13386280Y-6590110D01*
X13419753Y-6604009D01*
X13386477Y-6617758D01*
X13348890Y-6655280D01*
X13328523Y-6704329D01*
X13328477Y-6757438D01*
X13348758Y-6806523D01*
X13386280Y-6844110D01*
X13419753Y-6858009D01*
X13386477Y-6871758D01*
X13348890Y-6909280D01*
X13328523Y-6958329D01*
X13328477Y-7011438D01*
X13348758Y-7060523D01*
X13386280Y-7098110D01*
X13419753Y-7112009D01*
X13386477Y-7125758D01*
X13348890Y-7163280D01*
X13328523Y-7212329D01*
X13328477Y-7265438D01*
X13348758Y-7314523D01*
X13386280Y-7352110D01*
X13419753Y-7366009D01*
X13386477Y-7379758D01*
X13348890Y-7417280D01*
X13328523Y-7466329D01*
X13328477Y-7519438D01*
X13348758Y-7568523D01*
X13386280Y-7606110D01*
X13435329Y-7626477D01*
X13488438Y-7626523D01*
X13537523Y-7606242D01*
X13575110Y-7568720D01*
X13595477Y-7519671D01*
X13595523Y-7466562D01*
X13575242Y-7417477D01*
X13537720Y-7379890D01*
X13504247Y-7365991D01*
X13537523Y-7352242D01*
X13575110Y-7314720D01*
X13595477Y-7265671D01*
X13595523Y-7212562D01*
X13575242Y-7163477D01*
X13537720Y-7125890D01*
X13504247Y-7111991D01*
X13537523Y-7098242D01*
X13575110Y-7060720D01*
X13595477Y-7011671D01*
X13595523Y-6958562D01*
X13575242Y-6909477D01*
X13537720Y-6871890D01*
X13504247Y-6857991D01*
X13537523Y-6844242D01*
X13575110Y-6806720D01*
X13595477Y-6757671D01*
X13595523Y-6704562D01*
X13575242Y-6655477D01*
X13537720Y-6617890D01*
X13504247Y-6603991D01*
X13537523Y-6590242D01*
X13575110Y-6552720D01*
X13595477Y-6503671D01*
X13595523Y-6450562D01*
X13575242Y-6401477D01*
X13537720Y-6363890D01*
X13504247Y-6349991D01*
X13537523Y-6336242D01*
X13575110Y-6298720D01*
X13595477Y-6249671D01*
X13595523Y-6196562D01*
X13575242Y-6147477D01*
X13537720Y-6109890D01*
X13488671Y-6089523D01*
X13435562Y-6089477D01*
X13386477Y-6109758D01*
X13348890Y-6147280D01*
X13328523Y-6196329D01*
X13328477Y-6249438D01*
X13058888Y-6249438D01*
X13058281Y-6248530D01*
X13011726Y-6217423D01*
X12956811Y-6206500D01*
X12951189Y-6206500D01*
X12896274Y-6217423D01*
X12849719Y-6248530D01*
X12818612Y-6295085D01*
X12807689Y-6350000D01*
X12818612Y-6404915D01*
X12849719Y-6451470D01*
X12887927Y-6477000D01*
X12849719Y-6502530D01*
X12818612Y-6549085D01*
X12807689Y-6604000D01*
X12818612Y-6658915D01*
X12849719Y-6705470D01*
X12887927Y-6731000D01*
X12849719Y-6756530D01*
X12818612Y-6803085D01*
X12807689Y-6858000D01*
X12818612Y-6912915D01*
X12849719Y-6959470D01*
X12887927Y-6985000D01*
X12849719Y-7010530D01*
X12818612Y-7057085D01*
X12807689Y-7112000D01*
X12818612Y-7166915D01*
X12849719Y-7213470D01*
X12887927Y-7239000D01*
X12849719Y-7264530D01*
X12818612Y-7311085D01*
X12807689Y-7366000D01*
X12818612Y-7420915D01*
X12849719Y-7467470D01*
X12887927Y-7493000D01*
X12849719Y-7518530D01*
X12832700Y-7544000D01*
X12629246Y-7544000D01*
X12626033Y-7540781D01*
X12591680Y-7526516D01*
X12554483Y-7526484D01*
X12520106Y-7540688D01*
X12493781Y-7566967D01*
X12479516Y-7601320D01*
X12479484Y-7638517D01*
X12492906Y-7671000D01*
X12248246Y-7671000D01*
X12245033Y-7667781D01*
X12210680Y-7653516D01*
X12173483Y-7653484D01*
X12139106Y-7667688D01*
X12112781Y-7693967D01*
X12098516Y-7728320D01*
X12098484Y-7765517D01*
X12112688Y-7799894D01*
X12138967Y-7826219D01*
X12173320Y-7840484D01*
X12210517Y-7840516D01*
X12244894Y-7826312D01*
X12248212Y-7823000D01*
X12429437Y-7823000D01*
X12416016Y-7855320D01*
X12415984Y-7892517D01*
X12429406Y-7925000D01*
X12184746Y-7925000D01*
X12181533Y-7921781D01*
X12147180Y-7907516D01*
X12109983Y-7907484D01*
X12075606Y-7921688D01*
X12049281Y-7947967D01*
X12035016Y-7982320D01*
X12034984Y-8019517D01*
X11523785Y-8019517D01*
X11496072Y-8001000D01*
X11534281Y-7975470D01*
X11565388Y-7928915D01*
X11576311Y-7874000D01*
X11565388Y-7819085D01*
X11534281Y-7772530D01*
X11493830Y-7745501D01*
X11515513Y-7735239D01*
X11553104Y-7693742D01*
X11569190Y-7654904D01*
X11556991Y-7632700D01*
X11442700Y-7632700D01*
X11442700Y-7634700D01*
X11417300Y-7634700D01*
X11417300Y-7632700D01*
X11415300Y-7632700D01*
X11415300Y-7607300D01*
X11417300Y-7607300D01*
X11417300Y-7605300D01*
X11442700Y-7605300D01*
X11442700Y-7607300D01*
X11556991Y-7607300D01*
X11569190Y-7585096D01*
X11553104Y-7546258D01*
X11515513Y-7504761D01*
X11493830Y-7494499D01*
X11534281Y-7467470D01*
X11565388Y-7420915D01*
X11576311Y-7366000D01*
X11565388Y-7311085D01*
X11534281Y-7264530D01*
X11496072Y-7239000D01*
X11534281Y-7213470D01*
X11565388Y-7166915D01*
X11576311Y-7112000D01*
X11565388Y-7057085D01*
X11534281Y-7010530D01*
X11496072Y-6985000D01*
X11534281Y-6959470D01*
X11565388Y-6912915D01*
X11576311Y-6858000D01*
X11565388Y-6803085D01*
X11534281Y-6756530D01*
X11496072Y-6731000D01*
X11534281Y-6705470D01*
X11565388Y-6658915D01*
X11576311Y-6604000D01*
X11565388Y-6549085D01*
X11534281Y-6502530D01*
X11519853Y-6492890D01*
X11533532Y-6490316D01*
X11555144Y-6476409D01*
X11569643Y-6455189D01*
X11574744Y-6430000D01*
X11574744Y-6270000D01*
X11570316Y-6246468D01*
X11556409Y-6224856D01*
X11535189Y-6210357D01*
X11510000Y-6205256D01*
X11391500Y-6205256D01*
X11391500Y-6132658D01*
X11466658Y-6057500D01*
X11520342Y-6057500D01*
X11540516Y-6077674D01*
X11540516Y-6077674D01*
G37*
X11540516Y-6077674D02*
X11540475Y-6124419D01*
X11562276Y-6177180D01*
X11602608Y-6217582D01*
X11655331Y-6239475D01*
X11712419Y-6239525D01*
X11765180Y-6217724D01*
X11786166Y-6196774D01*
X12101186Y-6196774D01*
X12108599Y-6221386D01*
X12162322Y-6240696D01*
X12219345Y-6237978D01*
X12259400Y-6221386D01*
X12266814Y-6196774D01*
X12184000Y-6113960D01*
X12101186Y-6196774D01*
X11786166Y-6196774D01*
X11805582Y-6177392D01*
X11827475Y-6124669D01*
X11827516Y-6077642D01*
X11847658Y-6057500D01*
X12045350Y-6057500D01*
X12039303Y-6074322D01*
X12042022Y-6131345D01*
X12058614Y-6171400D01*
X12083225Y-6178814D01*
X12166039Y-6096000D01*
X12164625Y-6094586D01*
X12182586Y-6076625D01*
X12184000Y-6078039D01*
X12185414Y-6076625D01*
X12203375Y-6094586D01*
X12201960Y-6096000D01*
X12284774Y-6178814D01*
X12309386Y-6171400D01*
X12328696Y-6117678D01*
X12325978Y-6060655D01*
X12324671Y-6057500D01*
X13754500Y-6057500D01*
X13754500Y-7492999D01*
X13754500Y-7493000D01*
X13757787Y-7509525D01*
X13761237Y-7526867D01*
X13776550Y-7549785D01*
X13780421Y-7555579D01*
X14080516Y-7855674D01*
X14080475Y-7902419D01*
X14102276Y-7955180D01*
X14135500Y-7988462D01*
X14135500Y-8015986D01*
X14119719Y-8026530D01*
X14088612Y-8073085D01*
X14077689Y-8128000D01*
X14088612Y-8182915D01*
X14119719Y-8229470D01*
X14135500Y-8240014D01*
X14135500Y-8269986D01*
X14119719Y-8280530D01*
X14088612Y-8327085D01*
X14077689Y-8382000D01*
X14084131Y-8414389D01*
X14043260Y-8455260D01*
X14026785Y-8479916D01*
X14021000Y-8509000D01*
X14021000Y-9017000D01*
X14026785Y-9046084D01*
X14043260Y-9070740D01*
X14084131Y-9111611D01*
X14077689Y-9144000D01*
X14088612Y-9198915D01*
X14119719Y-9245470D01*
X14157927Y-9271000D01*
X14119719Y-9296530D01*
X14088612Y-9343085D01*
X14077689Y-9398000D01*
X14088612Y-9452915D01*
X14119719Y-9499470D01*
X14157927Y-9525000D01*
X14119719Y-9550530D01*
X14088612Y-9597085D01*
X14077689Y-9652000D01*
X14088612Y-9706915D01*
X14119719Y-9753470D01*
X14166274Y-9784577D01*
X14221189Y-9795500D01*
X14226811Y-9795500D01*
X14281726Y-9784577D01*
X14328281Y-9753470D01*
X14348002Y-9723955D01*
X14370085Y-9757005D01*
X14418262Y-9789196D01*
X14475091Y-9800500D01*
X14480909Y-9800500D01*
X14537738Y-9789196D01*
X14585915Y-9757005D01*
X14608095Y-9723810D01*
X14608896Y-9725742D01*
X14646487Y-9767239D01*
X14697096Y-9791191D01*
X14719300Y-9779063D01*
X14719300Y-9664700D01*
X14744700Y-9664700D01*
X14744700Y-9779063D01*
X14766904Y-9791191D01*
X14817513Y-9767239D01*
X14855104Y-9725742D01*
X14871190Y-9686904D01*
X14858991Y-9664700D01*
X14744700Y-9664700D01*
X14719300Y-9664700D01*
X14717300Y-9664700D01*
X14717300Y-9652000D01*
X15347689Y-9652000D01*
X15358612Y-9706915D01*
X15389719Y-9753470D01*
X15436274Y-9784577D01*
X15491189Y-9795500D01*
X15496811Y-9795500D01*
X15551726Y-9784577D01*
X15598281Y-9753470D01*
X15629388Y-9706915D01*
X15633368Y-9686904D01*
X15862810Y-9686904D01*
X15878896Y-9725742D01*
X15916487Y-9767239D01*
X15967096Y-9791191D01*
X15989300Y-9779063D01*
X15989300Y-9664700D01*
X16014700Y-9664700D01*
X16014700Y-9779063D01*
X16036904Y-9791191D01*
X16087513Y-9767239D01*
X16125104Y-9725742D01*
X16141190Y-9686904D01*
X16128991Y-9664700D01*
X16014700Y-9664700D01*
X15989300Y-9664700D01*
X15875008Y-9664700D01*
X15862810Y-9686904D01*
X15633368Y-9686904D01*
X15640311Y-9652000D01*
X15629388Y-9597085D01*
X15598281Y-9550530D01*
X15557830Y-9523501D01*
X15579513Y-9513239D01*
X15617104Y-9471742D01*
X15633190Y-9432904D01*
X15620991Y-9410700D01*
X15506700Y-9410700D01*
X15506700Y-9412700D01*
X15481300Y-9412700D01*
X15481300Y-9410700D01*
X15367008Y-9410700D01*
X15354810Y-9432904D01*
X15370896Y-9471742D01*
X15408487Y-9513239D01*
X15430170Y-9523501D01*
X15389719Y-9550530D01*
X15358612Y-9597085D01*
X15347689Y-9652000D01*
X14717300Y-9652000D01*
X14717300Y-9639300D01*
X14719300Y-9639300D01*
X14719300Y-9637300D01*
X14744700Y-9637300D01*
X14744700Y-9639300D01*
X14858991Y-9639300D01*
X14871190Y-9617096D01*
X14855104Y-9578258D01*
X14817513Y-9536761D01*
X14795830Y-9526499D01*
X14836281Y-9499470D01*
X14867388Y-9452915D01*
X14878311Y-9398000D01*
X14867388Y-9343085D01*
X14836281Y-9296530D01*
X14798072Y-9271000D01*
X14836281Y-9245470D01*
X14867388Y-9198915D01*
X14871368Y-9178904D01*
X15354810Y-9178904D01*
X15370896Y-9217742D01*
X15408487Y-9259239D01*
X15433337Y-9271000D01*
X15408487Y-9282761D01*
X15370896Y-9324258D01*
X15354810Y-9363096D01*
X15367008Y-9385300D01*
X15481300Y-9385300D01*
X15481300Y-9156700D01*
X15506700Y-9156700D01*
X15506700Y-9385300D01*
X15620991Y-9385300D01*
X15633190Y-9363096D01*
X15617104Y-9324258D01*
X15579513Y-9282761D01*
X15554663Y-9271000D01*
X15579513Y-9259239D01*
X15617104Y-9217742D01*
X15633190Y-9178904D01*
X15620991Y-9156700D01*
X15506700Y-9156700D01*
X15481300Y-9156700D01*
X15367008Y-9156700D01*
X15354810Y-9178904D01*
X14871368Y-9178904D01*
X14878311Y-9144000D01*
X14867388Y-9089085D01*
X14836281Y-9042530D01*
X14798072Y-9017000D01*
X14836281Y-8991470D01*
X14867388Y-8944915D01*
X14878311Y-8890000D01*
X14867388Y-8835085D01*
X14836281Y-8788530D01*
X14798072Y-8763000D01*
X14836281Y-8737470D01*
X14867388Y-8690915D01*
X14878311Y-8636000D01*
X14867388Y-8581085D01*
X14836281Y-8534530D01*
X14795830Y-8507501D01*
X14817513Y-8497239D01*
X14855104Y-8455742D01*
X14871190Y-8416904D01*
X14858991Y-8394700D01*
X14744700Y-8394700D01*
X14744700Y-8396700D01*
X14719300Y-8396700D01*
X14719300Y-8394700D01*
X14717300Y-8394700D01*
X14717300Y-8369300D01*
X14719300Y-8369300D01*
X14719300Y-8140700D01*
X14744700Y-8140700D01*
X14744700Y-8369300D01*
X14858991Y-8369300D01*
X14871190Y-8347096D01*
X14855104Y-8308258D01*
X14821806Y-8271500D01*
X14824631Y-8271500D01*
X14847970Y-8261833D01*
X14865833Y-8243970D01*
X14875500Y-8220631D01*
X14875500Y-8156575D01*
X14859625Y-8140700D01*
X14744700Y-8140700D01*
X14719300Y-8140700D01*
X14604375Y-8140700D01*
X14588500Y-8156575D01*
X14588500Y-8220631D01*
X14598167Y-8243970D01*
X14616030Y-8261833D01*
X14639369Y-8271500D01*
X14642194Y-8271500D01*
X14608896Y-8308258D01*
X14600880Y-8327611D01*
X14572399Y-8284986D01*
X14529088Y-8256047D01*
X14478000Y-8245885D01*
X14426912Y-8256047D01*
X14383601Y-8284986D01*
X14377912Y-8293500D01*
X14336947Y-8293500D01*
X14328281Y-8280530D01*
X14312500Y-8269986D01*
X14312500Y-8240014D01*
X14328281Y-8229470D01*
X14359388Y-8182915D01*
X14370311Y-8128000D01*
X14359388Y-8073085D01*
X14334187Y-8035369D01*
X14588500Y-8035369D01*
X14588500Y-8099425D01*
X14604375Y-8115300D01*
X14719300Y-8115300D01*
X14719300Y-8000375D01*
X14744700Y-8000375D01*
X14744700Y-8115300D01*
X14859625Y-8115300D01*
X14875500Y-8099425D01*
X14875500Y-8035369D01*
X14865833Y-8012030D01*
X14847970Y-7994167D01*
X14824631Y-7984500D01*
X14760575Y-7984500D01*
X14744700Y-8000375D01*
X14719300Y-8000375D01*
X14703425Y-7984500D01*
X14639369Y-7984500D01*
X14616030Y-7994167D01*
X14598167Y-8012030D01*
X14588500Y-8035369D01*
X14334187Y-8035369D01*
X14328281Y-8026530D01*
X14312500Y-8015986D01*
X14312500Y-7988417D01*
X14326166Y-7974774D01*
X14911186Y-7974774D01*
X14918599Y-7999386D01*
X14972322Y-8018696D01*
X15029345Y-8015978D01*
X15069400Y-7999386D01*
X15076814Y-7974774D01*
X14994000Y-7891960D01*
X14911186Y-7974774D01*
X14326166Y-7974774D01*
X14345582Y-7955392D01*
X14367475Y-7902669D01*
X14367516Y-7855642D01*
X14370836Y-7852322D01*
X14849303Y-7852322D01*
X14852022Y-7909345D01*
X14868614Y-7949400D01*
X14893225Y-7956814D01*
X14976039Y-7874000D01*
X15011960Y-7874000D01*
X15094774Y-7956814D01*
X15119386Y-7949400D01*
X15138696Y-7895678D01*
X15135978Y-7838655D01*
X15119386Y-7798599D01*
X15094774Y-7791186D01*
X15011960Y-7874000D01*
X14976039Y-7874000D01*
X14893225Y-7791186D01*
X14868614Y-7798599D01*
X14849303Y-7852322D01*
X14370836Y-7852322D01*
X14449932Y-7773225D01*
X14911186Y-7773225D01*
X14994000Y-7856039D01*
X15076814Y-7773225D01*
X15069400Y-7748614D01*
X15015678Y-7729303D01*
X14958655Y-7732022D01*
X14918599Y-7748614D01*
X14911186Y-7773225D01*
X14449932Y-7773225D01*
X14514658Y-7708500D01*
X15203342Y-7708500D01*
X15350516Y-7855674D01*
X15350475Y-7902419D01*
X15372276Y-7955180D01*
X15405500Y-7988462D01*
X15405500Y-8015986D01*
X15389719Y-8026530D01*
X15358612Y-8073085D01*
X15347689Y-8128000D01*
X15358612Y-8182915D01*
X15389719Y-8229470D01*
X15427927Y-8255000D01*
X15389719Y-8280530D01*
X15358612Y-8327085D01*
X15347689Y-8382000D01*
X15358612Y-8436915D01*
X15389719Y-8483470D01*
X15427927Y-8509000D01*
X15389719Y-8534530D01*
X15358612Y-8581085D01*
X15347689Y-8636000D01*
X15358612Y-8690915D01*
X15389719Y-8737470D01*
X15427927Y-8763000D01*
X15389719Y-8788530D01*
X15358612Y-8835085D01*
X15347689Y-8890000D01*
X15358612Y-8944915D01*
X15389719Y-8991470D01*
X15430170Y-9018499D01*
X15408487Y-9028761D01*
X15370896Y-9070258D01*
X15354810Y-9109096D01*
X15367008Y-9131300D01*
X15481300Y-9131300D01*
X15481300Y-9129300D01*
X15506700Y-9129300D01*
X15506700Y-9131300D01*
X15620991Y-9131300D01*
X15633190Y-9109096D01*
X15617104Y-9070258D01*
X15579513Y-9028761D01*
X15557830Y-9018499D01*
X15598281Y-8991470D01*
X15629388Y-8944915D01*
X15640311Y-8890000D01*
X15629388Y-8835085D01*
X15598281Y-8788530D01*
X15560072Y-8763000D01*
X15598281Y-8737470D01*
X15615299Y-8712000D01*
X15667937Y-8712000D01*
X15654516Y-8744320D01*
X15654484Y-8781517D01*
X15668688Y-8815894D01*
X15694967Y-8842219D01*
X15729320Y-8856484D01*
X15766517Y-8856516D01*
X15800894Y-8842312D01*
X15804212Y-8839000D01*
X15865833Y-8839000D01*
X15855689Y-8890000D01*
X15866612Y-8944915D01*
X15897719Y-8991470D01*
X15935927Y-9017000D01*
X15897719Y-9042530D01*
X15866612Y-9089085D01*
X15855689Y-9144000D01*
X15866612Y-9198915D01*
X15897719Y-9245470D01*
X15935927Y-9271000D01*
X15897719Y-9296530D01*
X15866612Y-9343085D01*
X15855689Y-9398000D01*
X15866612Y-9452915D01*
X15897719Y-9499470D01*
X15938170Y-9526499D01*
X15916487Y-9536761D01*
X15878896Y-9578258D01*
X15862810Y-9617096D01*
X15875008Y-9639300D01*
X15989300Y-9639300D01*
X15989300Y-9637300D01*
X16014700Y-9637300D01*
X16014700Y-9639300D01*
X16128991Y-9639300D01*
X16141190Y-9617096D01*
X16125104Y-9578258D01*
X16087513Y-9536761D01*
X16065830Y-9526499D01*
X16106281Y-9499470D01*
X16137388Y-9452915D01*
X16148311Y-9398000D01*
X16137388Y-9343085D01*
X16106281Y-9296530D01*
X16068072Y-9271000D01*
X16106281Y-9245470D01*
X16137388Y-9198915D01*
X16148311Y-9144000D01*
X16137388Y-9089085D01*
X16106281Y-9042530D01*
X16068072Y-9017000D01*
X16106281Y-8991470D01*
X16137388Y-8944915D01*
X16148311Y-8890000D01*
X16138167Y-8839000D01*
X16453754Y-8839000D01*
X16456967Y-8842219D01*
X16491320Y-8856484D01*
X16528517Y-8856516D01*
X16562894Y-8842312D01*
X16589219Y-8816033D01*
X16603484Y-8781680D01*
X16603516Y-8744483D01*
X16589312Y-8710106D01*
X16563033Y-8683781D01*
X16528680Y-8669516D01*
X16491483Y-8669484D01*
X16457106Y-8683688D01*
X16453788Y-8687000D01*
X16138167Y-8687000D01*
X16148311Y-8636000D01*
X16138167Y-8585000D01*
X16326754Y-8585000D01*
X16329967Y-8588219D01*
X16364320Y-8602484D01*
X16401517Y-8602516D01*
X16435894Y-8588312D01*
X16462219Y-8562033D01*
X16476484Y-8527680D01*
X16476516Y-8490483D01*
X16462312Y-8456106D01*
X16436033Y-8429781D01*
X16401680Y-8415516D01*
X16364483Y-8415484D01*
X16330106Y-8429688D01*
X16326788Y-8433000D01*
X16138167Y-8433000D01*
X16148311Y-8382000D01*
X16138167Y-8331000D01*
X16390254Y-8331000D01*
X16393467Y-8334219D01*
X16427820Y-8348484D01*
X16465017Y-8348516D01*
X16499394Y-8334312D01*
X16525719Y-8308033D01*
X16539984Y-8273680D01*
X16540016Y-8236483D01*
X16525812Y-8202106D01*
X16499533Y-8175781D01*
X16465180Y-8161516D01*
X16427983Y-8161484D01*
X16393606Y-8175688D01*
X16390288Y-8179000D01*
X16138167Y-8179000D01*
X16148311Y-8128000D01*
X16137388Y-8073085D01*
X16106281Y-8026530D01*
X16091853Y-8016890D01*
X16105532Y-8014316D01*
X16127144Y-8000409D01*
X16141643Y-7979189D01*
X16146744Y-7954000D01*
X16146744Y-7794000D01*
X16142316Y-7770468D01*
X16128409Y-7748856D01*
X16107189Y-7734357D01*
X16082000Y-7729256D01*
X15922000Y-7729256D01*
X15898468Y-7733684D01*
X15876856Y-7747591D01*
X15862357Y-7768811D01*
X15857256Y-7794000D01*
X15857256Y-7954000D01*
X15861684Y-7977532D01*
X15875591Y-7999144D01*
X15896811Y-8013643D01*
X15912309Y-8016781D01*
X15897719Y-8026530D01*
X15880700Y-8052000D01*
X15748000Y-8052000D01*
X15723741Y-8056825D01*
X15718916Y-8057785D01*
X15694260Y-8074260D01*
X15640259Y-8128260D01*
X15640311Y-8128000D01*
X15629388Y-8073085D01*
X15598281Y-8026530D01*
X15582500Y-8015986D01*
X15582500Y-7988417D01*
X15615582Y-7955392D01*
X15637475Y-7902669D01*
X15637525Y-7845581D01*
X15615724Y-7792820D01*
X15575392Y-7752418D01*
X15522669Y-7730525D01*
X15475642Y-7730484D01*
X15465932Y-7720774D01*
X16181186Y-7720774D01*
X16188599Y-7745386D01*
X16242322Y-7764696D01*
X16299345Y-7761978D01*
X16339400Y-7745386D01*
X16346814Y-7720774D01*
X16264000Y-7637960D01*
X16181186Y-7720774D01*
X15465932Y-7720774D01*
X15343480Y-7598322D01*
X16119303Y-7598322D01*
X16122022Y-7655345D01*
X16138614Y-7695400D01*
X16163225Y-7702814D01*
X16246039Y-7620000D01*
X16281960Y-7620000D01*
X16364774Y-7702814D01*
X16389386Y-7695400D01*
X16408696Y-7641678D01*
X16405978Y-7584655D01*
X16389386Y-7544599D01*
X16364774Y-7537186D01*
X16281960Y-7620000D01*
X16246039Y-7620000D01*
X16163225Y-7537186D01*
X16138614Y-7544599D01*
X16119303Y-7598322D01*
X15343480Y-7598322D01*
X15302579Y-7557421D01*
X15299822Y-7555579D01*
X15273867Y-7538237D01*
X15268248Y-7537119D01*
X15240000Y-7531500D01*
X15239999Y-7531500D01*
X14478000Y-7531500D01*
X14444132Y-7538237D01*
X14415421Y-7557421D01*
X14415421Y-7557421D01*
X14242326Y-7730516D01*
X14205642Y-7730484D01*
X13931500Y-7456342D01*
X13931500Y-7239000D01*
X14087885Y-7239000D01*
X14098047Y-7290088D01*
X14126986Y-7333399D01*
X14170296Y-7362338D01*
X14188707Y-7366000D01*
X14170296Y-7369662D01*
X14126986Y-7398601D01*
X14098047Y-7441912D01*
X14087885Y-7493000D01*
X14098047Y-7544088D01*
X14126986Y-7587399D01*
X14170296Y-7616338D01*
X14221385Y-7626500D01*
X14226615Y-7626500D01*
X14277704Y-7616338D01*
X14321014Y-7587399D01*
X14349953Y-7544088D01*
X14354899Y-7519225D01*
X16181186Y-7519225D01*
X16264000Y-7602039D01*
X16346814Y-7519225D01*
X16339400Y-7494614D01*
X16285678Y-7475303D01*
X16228655Y-7478022D01*
X16188599Y-7494614D01*
X16181186Y-7519225D01*
X14354899Y-7519225D01*
X14360115Y-7493000D01*
X14349953Y-7441912D01*
X14321014Y-7398601D01*
X14314755Y-7394419D01*
X14465475Y-7394419D01*
X14487276Y-7447180D01*
X14527608Y-7487582D01*
X14580331Y-7509475D01*
X14637419Y-7509525D01*
X14690180Y-7487724D01*
X14717058Y-7460893D01*
X14718684Y-7469532D01*
X14732591Y-7491144D01*
X14753811Y-7505643D01*
X14779000Y-7510744D01*
X14939000Y-7510744D01*
X14962532Y-7506316D01*
X14984144Y-7492409D01*
X14998643Y-7471189D01*
X15003744Y-7446000D01*
X15003744Y-7394419D01*
X15227475Y-7394419D01*
X15249276Y-7447180D01*
X15289608Y-7487582D01*
X15342331Y-7509475D01*
X15399419Y-7509525D01*
X15452180Y-7487724D01*
X15479058Y-7460893D01*
X15480684Y-7469532D01*
X15494591Y-7491144D01*
X15515811Y-7505643D01*
X15541000Y-7510744D01*
X15701000Y-7510744D01*
X15724532Y-7506316D01*
X15746144Y-7492409D01*
X15760643Y-7471189D01*
X15765744Y-7446000D01*
X15765744Y-7339774D01*
X16435186Y-7339774D01*
X16442599Y-7364386D01*
X16496322Y-7383696D01*
X16553345Y-7380978D01*
X16593400Y-7364386D01*
X16600814Y-7339774D01*
X16518000Y-7256960D01*
X16435186Y-7339774D01*
X15765744Y-7339774D01*
X15765744Y-7286000D01*
X15761316Y-7262468D01*
X15747409Y-7240856D01*
X15726189Y-7226357D01*
X15701000Y-7221256D01*
X15541000Y-7221256D01*
X15517468Y-7225684D01*
X15495856Y-7239591D01*
X15481357Y-7260811D01*
X15479232Y-7271304D01*
X15452392Y-7244418D01*
X15399669Y-7222525D01*
X15342581Y-7222475D01*
X15289820Y-7244276D01*
X15249418Y-7284608D01*
X15227525Y-7337331D01*
X15227475Y-7394419D01*
X15003744Y-7394419D01*
X15003744Y-7286000D01*
X14999316Y-7262468D01*
X14985409Y-7240856D01*
X14964189Y-7226357D01*
X14939000Y-7221256D01*
X14779000Y-7221256D01*
X14755468Y-7225684D01*
X14733856Y-7239591D01*
X14719357Y-7260811D01*
X14717232Y-7271304D01*
X14690392Y-7244418D01*
X14637669Y-7222525D01*
X14580581Y-7222475D01*
X14527820Y-7244276D01*
X14487418Y-7284608D01*
X14465525Y-7337331D01*
X14465475Y-7394419D01*
X14314755Y-7394419D01*
X14277704Y-7369662D01*
X14259293Y-7366000D01*
X14277704Y-7362338D01*
X14321014Y-7333399D01*
X14349953Y-7290088D01*
X14360115Y-7239000D01*
X14355803Y-7217322D01*
X16373303Y-7217322D01*
X16376022Y-7274345D01*
X16392614Y-7314400D01*
X16417225Y-7321814D01*
X16500039Y-7239000D01*
X16535960Y-7239000D01*
X16618774Y-7321814D01*
X16643386Y-7314400D01*
X16662696Y-7260678D01*
X16659978Y-7203655D01*
X16643386Y-7163599D01*
X16618774Y-7156186D01*
X16535960Y-7239000D01*
X16500039Y-7239000D01*
X16417225Y-7156186D01*
X16392614Y-7163599D01*
X16373303Y-7217322D01*
X14355803Y-7217322D01*
X14349953Y-7187912D01*
X14321014Y-7144601D01*
X14277704Y-7115662D01*
X14261246Y-7112389D01*
X14304266Y-7091676D01*
X14309541Y-7085774D01*
X16435186Y-7085774D01*
X16442599Y-7110386D01*
X16446771Y-7111886D01*
X16442599Y-7113614D01*
X16435186Y-7138225D01*
X16518000Y-7221039D01*
X16600814Y-7138225D01*
X16593400Y-7113614D01*
X16589229Y-7112114D01*
X16593400Y-7110386D01*
X16600814Y-7085774D01*
X16518000Y-7002960D01*
X16435186Y-7085774D01*
X14309541Y-7085774D01*
X14338980Y-7052840D01*
X14353272Y-7018333D01*
X14340937Y-6997700D01*
X14236700Y-6997700D01*
X14236700Y-6999700D01*
X14211300Y-6999700D01*
X14211300Y-6997700D01*
X14107063Y-6997700D01*
X14094728Y-7018333D01*
X14109020Y-7052840D01*
X14143734Y-7091676D01*
X14186753Y-7112389D01*
X14170296Y-7115662D01*
X14126986Y-7144601D01*
X14098047Y-7187912D01*
X14087885Y-7239000D01*
X13931500Y-7239000D01*
X13931500Y-6764333D01*
X14094728Y-6764333D01*
X14109020Y-6798840D01*
X14143734Y-6837676D01*
X14185946Y-6858000D01*
X14143734Y-6878324D01*
X14109020Y-6917160D01*
X14094728Y-6951667D01*
X14107063Y-6972300D01*
X14211300Y-6972300D01*
X14211300Y-6867979D01*
X14194494Y-6858000D01*
X14211300Y-6848021D01*
X14211300Y-6743700D01*
X14236700Y-6743700D01*
X14236700Y-6848021D01*
X14253506Y-6858000D01*
X14236700Y-6867979D01*
X14236700Y-6972300D01*
X14340937Y-6972300D01*
X14353272Y-6951667D01*
X14338980Y-6917160D01*
X14304266Y-6878324D01*
X14262054Y-6858000D01*
X14304266Y-6837676D01*
X14338980Y-6798840D01*
X14353272Y-6764333D01*
X14340937Y-6743700D01*
X14236700Y-6743700D01*
X14211300Y-6743700D01*
X14107063Y-6743700D01*
X14094728Y-6764333D01*
X13931500Y-6764333D01*
X13931500Y-6510333D01*
X14094728Y-6510333D01*
X14109020Y-6544840D01*
X14143734Y-6583676D01*
X14185946Y-6604000D01*
X14143734Y-6624324D01*
X14109020Y-6663160D01*
X14094728Y-6697667D01*
X14107063Y-6718300D01*
X14211300Y-6718300D01*
X14211300Y-6613979D01*
X14194494Y-6604000D01*
X14211300Y-6594021D01*
X14211300Y-6489700D01*
X14236700Y-6489700D01*
X14236700Y-6594021D01*
X14253506Y-6604000D01*
X14236700Y-6613979D01*
X14236700Y-6718300D01*
X14340937Y-6718300D01*
X14353272Y-6697667D01*
X14350012Y-6689797D01*
X14479500Y-6689797D01*
X14479500Y-6756203D01*
X14489662Y-6807291D01*
X14518601Y-6850602D01*
X14561912Y-6879541D01*
X14613000Y-6889703D01*
X14664088Y-6879541D01*
X14707399Y-6850602D01*
X14736338Y-6807291D01*
X14738000Y-6798935D01*
X14739662Y-6807291D01*
X14768601Y-6850602D01*
X14811912Y-6879541D01*
X14863000Y-6889703D01*
X14914088Y-6879541D01*
X14957399Y-6850602D01*
X14986338Y-6807291D01*
X14996500Y-6756203D01*
X14996500Y-6689797D01*
X15229500Y-6689797D01*
X15229500Y-6756203D01*
X15239662Y-6807291D01*
X15268601Y-6850602D01*
X15311912Y-6879541D01*
X15363000Y-6889703D01*
X15414088Y-6879541D01*
X15457399Y-6850602D01*
X15486338Y-6807291D01*
X15488000Y-6798935D01*
X15489662Y-6807291D01*
X15518601Y-6850602D01*
X15561912Y-6879541D01*
X15613000Y-6889703D01*
X15664088Y-6879541D01*
X15700241Y-6855385D01*
X15868500Y-6855385D01*
X15868500Y-6860615D01*
X15878662Y-6911704D01*
X15907601Y-6955014D01*
X15950912Y-6983953D01*
X16002000Y-6994115D01*
X16053088Y-6983953D01*
X16083965Y-6963322D01*
X16373303Y-6963322D01*
X16376022Y-7020345D01*
X16392614Y-7060400D01*
X16417225Y-7067814D01*
X16500039Y-6985000D01*
X16535960Y-6985000D01*
X16618774Y-7067814D01*
X16643386Y-7060400D01*
X16662696Y-7006678D01*
X16659978Y-6949655D01*
X16643386Y-6909599D01*
X16618774Y-6902186D01*
X16535960Y-6985000D01*
X16500039Y-6985000D01*
X16417225Y-6902186D01*
X16392614Y-6909599D01*
X16373303Y-6963322D01*
X16083965Y-6963322D01*
X16096399Y-6955014D01*
X16125338Y-6911704D01*
X16130804Y-6884225D01*
X16435186Y-6884225D01*
X16518000Y-6967039D01*
X16600814Y-6884225D01*
X16593400Y-6859614D01*
X16539678Y-6840303D01*
X16482655Y-6843022D01*
X16442599Y-6859614D01*
X16435186Y-6884225D01*
X16130804Y-6884225D01*
X16135500Y-6860615D01*
X16135500Y-6855385D01*
X16125338Y-6804296D01*
X16096399Y-6760986D01*
X16053088Y-6732047D01*
X16002000Y-6721885D01*
X15950912Y-6732047D01*
X15907601Y-6760986D01*
X15878662Y-6804296D01*
X15868500Y-6855385D01*
X15700241Y-6855385D01*
X15707399Y-6850602D01*
X15736338Y-6807291D01*
X15746500Y-6756203D01*
X15746500Y-6689797D01*
X15736338Y-6638709D01*
X15707399Y-6595398D01*
X15664088Y-6566459D01*
X15613000Y-6556297D01*
X15561912Y-6566459D01*
X15518601Y-6595398D01*
X15489662Y-6638709D01*
X15488000Y-6647064D01*
X15486338Y-6638709D01*
X15457399Y-6595398D01*
X15414088Y-6566459D01*
X15363000Y-6556297D01*
X15311912Y-6566459D01*
X15268601Y-6595398D01*
X15239662Y-6638709D01*
X15229500Y-6689797D01*
X14996500Y-6689797D01*
X14986338Y-6638709D01*
X14957399Y-6595398D01*
X14914088Y-6566459D01*
X14863000Y-6556297D01*
X14811912Y-6566459D01*
X14768601Y-6595398D01*
X14739662Y-6638709D01*
X14738000Y-6647064D01*
X14736338Y-6638709D01*
X14707399Y-6595398D01*
X14664088Y-6566459D01*
X14613000Y-6556297D01*
X14561912Y-6566459D01*
X14518601Y-6595398D01*
X14489662Y-6638709D01*
X14479500Y-6689797D01*
X14350012Y-6689797D01*
X14338980Y-6663160D01*
X14304266Y-6624324D01*
X14262054Y-6604000D01*
X14304266Y-6583676D01*
X14338980Y-6544840D01*
X14353272Y-6510333D01*
X14340937Y-6489700D01*
X14236700Y-6489700D01*
X14211300Y-6489700D01*
X14107063Y-6489700D01*
X14094728Y-6510333D01*
X13931500Y-6510333D01*
X13931500Y-6256333D01*
X14094728Y-6256333D01*
X14109020Y-6290840D01*
X14143734Y-6329676D01*
X14185946Y-6350000D01*
X14143734Y-6370324D01*
X14109020Y-6409160D01*
X14094728Y-6443667D01*
X14107063Y-6464300D01*
X14211300Y-6464300D01*
X14211300Y-6359979D01*
X14194494Y-6350000D01*
X14211300Y-6340021D01*
X14211300Y-6235700D01*
X14236700Y-6235700D01*
X14236700Y-6340021D01*
X14253506Y-6350000D01*
X14236700Y-6359979D01*
X14236700Y-6464300D01*
X14340937Y-6464300D01*
X14353272Y-6443667D01*
X14338980Y-6409160D01*
X14304266Y-6370324D01*
X14262054Y-6350000D01*
X14304266Y-6329676D01*
X14338980Y-6290840D01*
X14353272Y-6256333D01*
X14953728Y-6256333D01*
X14954802Y-6262355D01*
X14979621Y-6308418D01*
X15020178Y-6341478D01*
X15070300Y-6356500D01*
X15100300Y-6356500D01*
X15100300Y-6235700D01*
X15125700Y-6235700D01*
X15125700Y-6356500D01*
X15155700Y-6356500D01*
X15205821Y-6341478D01*
X15246379Y-6308418D01*
X15271198Y-6262355D01*
X15272272Y-6256333D01*
X15259937Y-6235700D01*
X15125700Y-6235700D01*
X15100300Y-6235700D01*
X14966063Y-6235700D01*
X14953728Y-6256333D01*
X14353272Y-6256333D01*
X14340937Y-6235700D01*
X14236700Y-6235700D01*
X14211300Y-6235700D01*
X14107063Y-6235700D01*
X14094728Y-6256333D01*
X13931500Y-6256333D01*
X13931500Y-6189667D01*
X14094728Y-6189667D01*
X14107063Y-6210300D01*
X14211300Y-6210300D01*
X14211300Y-6105979D01*
X14236700Y-6105979D01*
X14236700Y-6210300D01*
X14340937Y-6210300D01*
X14353272Y-6189667D01*
X14953728Y-6189667D01*
X14966063Y-6210300D01*
X15100300Y-6210300D01*
X15100300Y-6089500D01*
X15125700Y-6089500D01*
X15125700Y-6210300D01*
X15259937Y-6210300D01*
X15272272Y-6189667D01*
X15271198Y-6183645D01*
X15246379Y-6137581D01*
X15205821Y-6104522D01*
X15155700Y-6089500D01*
X15125700Y-6089500D01*
X15100300Y-6089500D01*
X15070300Y-6089500D01*
X15020178Y-6104522D01*
X14979621Y-6137581D01*
X14954802Y-6183645D01*
X14953728Y-6189667D01*
X14353272Y-6189667D01*
X14338980Y-6155160D01*
X14304266Y-6116324D01*
X14257333Y-6093727D01*
X14236700Y-6105979D01*
X14211300Y-6105979D01*
X14190667Y-6093727D01*
X14143734Y-6116324D01*
X14109020Y-6155160D01*
X14094728Y-6189667D01*
X13931500Y-6189667D01*
X13931500Y-6057500D01*
X15873435Y-6057500D01*
X15868523Y-6069329D01*
X15868477Y-6122438D01*
X15888758Y-6171523D01*
X15926280Y-6209110D01*
X15975329Y-6229477D01*
X16028438Y-6229523D01*
X16077523Y-6209242D01*
X16115110Y-6171720D01*
X16129009Y-6138247D01*
X16142758Y-6171523D01*
X16180280Y-6209110D01*
X16213753Y-6223009D01*
X16180477Y-6236758D01*
X16142890Y-6274280D01*
X16122523Y-6323329D01*
X16122477Y-6376438D01*
X16142758Y-6425523D01*
X16180280Y-6463110D01*
X16213753Y-6477009D01*
X16180477Y-6490758D01*
X16142890Y-6528280D01*
X16122523Y-6577329D01*
X16122477Y-6630438D01*
X16142758Y-6679523D01*
X16180280Y-6717110D01*
X16229329Y-6737477D01*
X16282438Y-6737523D01*
X16331523Y-6717242D01*
X16369110Y-6679720D01*
X16389477Y-6630671D01*
X16389523Y-6577562D01*
X16369242Y-6528477D01*
X16331720Y-6490890D01*
X16298247Y-6476991D01*
X16331523Y-6463242D01*
X16369110Y-6425720D01*
X16389477Y-6376671D01*
X16389523Y-6323562D01*
X16369242Y-6274477D01*
X16331720Y-6236890D01*
X16298247Y-6222991D01*
X16331523Y-6209242D01*
X16369110Y-6171720D01*
X16389477Y-6122671D01*
X16389523Y-6069562D01*
X16384539Y-6057500D01*
X16675500Y-6057500D01*
X16675500Y-7505583D01*
X16642418Y-7538608D01*
X16620525Y-7591331D01*
X16620475Y-7648419D01*
X16642276Y-7701180D01*
X16675500Y-7734462D01*
X16675500Y-7761986D01*
X16659719Y-7772530D01*
X16628612Y-7819085D01*
X16617689Y-7874000D01*
X16628612Y-7928915D01*
X16659719Y-7975470D01*
X16697927Y-8001000D01*
X16659719Y-8026530D01*
X16628612Y-8073085D01*
X16617689Y-8128000D01*
X16628612Y-8182915D01*
X16659719Y-8229470D01*
X16697927Y-8255000D01*
X16659719Y-8280530D01*
X16628612Y-8327085D01*
X16617689Y-8382000D01*
X16628612Y-8436915D01*
X16659719Y-8483470D01*
X16697927Y-8509000D01*
X16659719Y-8534530D01*
X16628612Y-8581085D01*
X16617689Y-8636000D01*
X16628612Y-8690915D01*
X16659719Y-8737470D01*
X16697927Y-8763000D01*
X16659719Y-8788530D01*
X16628612Y-8835085D01*
X16617689Y-8890000D01*
X16628612Y-8944915D01*
X16659719Y-8991470D01*
X16697927Y-9017000D01*
X16659719Y-9042530D01*
X16628612Y-9089085D01*
X16617689Y-9144000D01*
X16628612Y-9198915D01*
X16659719Y-9245470D01*
X16697927Y-9271000D01*
X16659719Y-9296530D01*
X16628612Y-9343085D01*
X16617689Y-9398000D01*
X16628612Y-9452915D01*
X16659719Y-9499470D01*
X16697927Y-9525000D01*
X16659719Y-9550530D01*
X16628612Y-9597085D01*
X16617689Y-9652000D01*
X16628612Y-9706915D01*
X16659719Y-9753470D01*
X16706274Y-9784577D01*
X16761189Y-9795500D01*
X16766811Y-9795500D01*
X16821726Y-9784577D01*
X16868281Y-9753470D01*
X16899388Y-9706915D01*
X16903368Y-9686904D01*
X17132810Y-9686904D01*
X17148896Y-9725742D01*
X17186487Y-9767239D01*
X17237096Y-9791191D01*
X17259300Y-9779063D01*
X17259300Y-9664700D01*
X17284700Y-9664700D01*
X17284700Y-9779063D01*
X17306904Y-9791191D01*
X17357513Y-9767239D01*
X17395104Y-9725742D01*
X17411190Y-9686904D01*
X17398992Y-9664700D01*
X17284700Y-9664700D01*
X17259300Y-9664700D01*
X17145009Y-9664700D01*
X17132810Y-9686904D01*
X16903368Y-9686904D01*
X16910311Y-9652000D01*
X16899388Y-9597085D01*
X16868281Y-9550530D01*
X16830073Y-9525000D01*
X16868281Y-9499470D01*
X16899388Y-9452915D01*
X16910311Y-9398000D01*
X16899388Y-9343085D01*
X16868281Y-9296530D01*
X16830073Y-9271000D01*
X16868281Y-9245470D01*
X16899388Y-9198915D01*
X16910311Y-9144000D01*
X16899388Y-9089085D01*
X16868281Y-9042530D01*
X16830073Y-9017000D01*
X16868281Y-8991470D01*
X16899388Y-8944915D01*
X16910311Y-8890000D01*
X16899388Y-8835085D01*
X16868281Y-8788530D01*
X16830073Y-8763000D01*
X16868281Y-8737470D01*
X16899388Y-8690915D01*
X16910311Y-8636000D01*
X16899388Y-8581085D01*
X16868281Y-8534530D01*
X16830073Y-8509000D01*
X16868281Y-8483470D01*
X16899388Y-8436915D01*
X16910311Y-8382000D01*
X17125689Y-8382000D01*
X17136612Y-8436915D01*
X17167719Y-8483470D01*
X17205928Y-8509000D01*
X17167719Y-8534530D01*
X17136612Y-8581085D01*
X17125689Y-8636000D01*
X17136612Y-8690915D01*
X17167719Y-8737470D01*
X17205928Y-8763000D01*
X17167719Y-8788530D01*
X17136612Y-8835085D01*
X17125689Y-8890000D01*
X17136612Y-8944915D01*
X17167719Y-8991470D01*
X17205928Y-9017000D01*
X17167719Y-9042530D01*
X17136612Y-9089085D01*
X17125689Y-9144000D01*
X17136612Y-9198915D01*
X17167719Y-9245470D01*
X17205928Y-9271000D01*
X17167719Y-9296530D01*
X17136612Y-9343085D01*
X17125689Y-9398000D01*
X17136612Y-9452915D01*
X17167719Y-9499470D01*
X17208170Y-9526499D01*
X17186487Y-9536761D01*
X17148896Y-9578258D01*
X17132810Y-9617096D01*
X17145009Y-9639300D01*
X17259300Y-9639300D01*
X17259300Y-9637300D01*
X17284700Y-9637300D01*
X17284700Y-9639300D01*
X17398992Y-9639300D01*
X17411190Y-9617096D01*
X17395104Y-9578258D01*
X17357513Y-9536761D01*
X17335830Y-9526499D01*
X17376281Y-9499470D01*
X17407388Y-9452915D01*
X17418311Y-9398000D01*
X17407388Y-9343085D01*
X17376281Y-9296530D01*
X17338073Y-9271000D01*
X17376281Y-9245470D01*
X17407388Y-9198915D01*
X17418311Y-9144000D01*
X17407388Y-9089085D01*
X17376281Y-9042530D01*
X17338073Y-9017000D01*
X17376281Y-8991470D01*
X17407388Y-8944915D01*
X17418311Y-8890000D01*
X17407388Y-8835085D01*
X17376281Y-8788530D01*
X17338073Y-8763000D01*
X17376281Y-8737470D01*
X17407388Y-8690915D01*
X17418311Y-8636000D01*
X17407388Y-8581085D01*
X17376281Y-8534530D01*
X17338073Y-8509000D01*
X17376281Y-8483470D01*
X17407388Y-8436915D01*
X17418311Y-8382000D01*
X17407388Y-8327085D01*
X17376281Y-8280530D01*
X17361854Y-8270890D01*
X17375532Y-8268316D01*
X17397144Y-8254409D01*
X17411643Y-8233189D01*
X17416744Y-8208000D01*
X17416744Y-8048000D01*
X17412316Y-8024468D01*
X17398409Y-8002856D01*
X17377189Y-7988357D01*
X17352000Y-7983256D01*
X17192000Y-7983256D01*
X17168468Y-7987684D01*
X17146856Y-8001591D01*
X17132357Y-8022811D01*
X17127256Y-8048000D01*
X17127256Y-8208000D01*
X17131684Y-8231532D01*
X17145591Y-8253144D01*
X17166811Y-8267643D01*
X17182309Y-8270781D01*
X17167719Y-8280530D01*
X17136612Y-8327085D01*
X17125689Y-8382000D01*
X16910311Y-8382000D01*
X16899388Y-8327085D01*
X16868281Y-8280530D01*
X16830073Y-8255000D01*
X16868281Y-8229470D01*
X16899388Y-8182915D01*
X16910311Y-8128000D01*
X16899388Y-8073085D01*
X16868281Y-8026530D01*
X16830073Y-8001000D01*
X16868281Y-7975470D01*
X16899388Y-7928915D01*
X16910311Y-7874000D01*
X16899388Y-7819085D01*
X16868281Y-7772530D01*
X16852500Y-7761986D01*
X16852500Y-7734417D01*
X16885582Y-7701392D01*
X16907475Y-7648669D01*
X16907525Y-7591581D01*
X16885724Y-7538820D01*
X16852500Y-7505538D01*
X16852500Y-7500428D01*
X17387476Y-7500428D01*
X17408517Y-7551351D01*
X17447444Y-7590346D01*
X17498330Y-7611476D01*
X17553429Y-7611524D01*
X17604352Y-7590483D01*
X17643346Y-7551556D01*
X17664476Y-7500670D01*
X17664524Y-7445571D01*
X17643483Y-7394648D01*
X17604556Y-7355654D01*
X17553670Y-7334524D01*
X17498572Y-7334476D01*
X17447649Y-7355517D01*
X17408654Y-7394444D01*
X17387524Y-7445330D01*
X17387476Y-7500428D01*
X16852500Y-7500428D01*
X16852500Y-7013419D01*
X16874475Y-7013419D01*
X16896276Y-7066180D01*
X16936608Y-7106582D01*
X16949622Y-7111986D01*
X16936820Y-7117276D01*
X16896418Y-7157608D01*
X16874525Y-7210331D01*
X16874475Y-7267419D01*
X16896276Y-7320180D01*
X16936608Y-7360582D01*
X16989331Y-7382475D01*
X17046419Y-7382525D01*
X17099180Y-7360724D01*
X17139582Y-7320392D01*
X17161475Y-7267669D01*
X17161525Y-7210581D01*
X17139724Y-7157820D01*
X17099392Y-7117418D01*
X17086379Y-7112014D01*
X17099180Y-7106724D01*
X17139582Y-7066392D01*
X17161475Y-7013669D01*
X17161476Y-7012428D01*
X17387476Y-7012428D01*
X17408517Y-7063351D01*
X17447444Y-7102346D01*
X17498330Y-7123476D01*
X17553429Y-7123524D01*
X17604352Y-7102483D01*
X17643346Y-7063556D01*
X17664476Y-7012670D01*
X17664524Y-6957571D01*
X17643483Y-6906648D01*
X17604556Y-6867654D01*
X17553670Y-6846524D01*
X17498572Y-6846476D01*
X17447649Y-6867517D01*
X17408654Y-6906444D01*
X17387524Y-6957330D01*
X17387476Y-7012428D01*
X17161476Y-7012428D01*
X17161525Y-6956581D01*
X17139724Y-6903820D01*
X17099392Y-6863418D01*
X17046669Y-6841525D01*
X16989581Y-6841475D01*
X16936820Y-6863276D01*
X16896418Y-6903608D01*
X16874525Y-6956331D01*
X16874475Y-7013419D01*
X16852500Y-7013419D01*
X16852500Y-6057500D01*
X16889543Y-6057500D01*
X16881885Y-6096000D01*
X16892047Y-6147088D01*
X16920986Y-6190399D01*
X16964296Y-6219338D01*
X16982707Y-6223000D01*
X16964296Y-6226662D01*
X16920986Y-6255601D01*
X16892047Y-6298912D01*
X16881885Y-6350000D01*
X16892047Y-6401088D01*
X16920986Y-6444399D01*
X16964296Y-6473338D01*
X16982707Y-6477000D01*
X16964296Y-6480662D01*
X16920986Y-6509601D01*
X16892047Y-6552912D01*
X16881885Y-6604000D01*
X16892047Y-6655088D01*
X16920986Y-6698399D01*
X16964296Y-6727338D01*
X17015385Y-6737500D01*
X17020615Y-6737500D01*
X17071704Y-6727338D01*
X17115014Y-6698399D01*
X17143953Y-6655088D01*
X17154115Y-6604000D01*
X17143953Y-6552912D01*
X17115014Y-6509601D01*
X17071704Y-6480662D01*
X17053293Y-6477000D01*
X17071704Y-6473338D01*
X17115014Y-6444399D01*
X17143953Y-6401088D01*
X17154115Y-6350000D01*
X17143953Y-6298912D01*
X17115014Y-6255601D01*
X17108989Y-6251575D01*
X17372500Y-6251575D01*
X17372500Y-6325631D01*
X17382167Y-6348970D01*
X17400030Y-6366833D01*
X17423369Y-6376500D01*
X17497425Y-6376500D01*
X17513300Y-6360625D01*
X17513300Y-6235700D01*
X17388375Y-6235700D01*
X17372500Y-6251575D01*
X17108989Y-6251575D01*
X17071704Y-6226662D01*
X17053293Y-6223000D01*
X17071704Y-6219338D01*
X17115014Y-6190399D01*
X17143953Y-6147088D01*
X17149268Y-6120369D01*
X17372500Y-6120369D01*
X17372500Y-6194425D01*
X17388375Y-6210300D01*
X17513300Y-6210300D01*
X17513300Y-6085375D01*
X17538700Y-6085375D01*
X17538700Y-6210300D01*
X17540700Y-6210300D01*
X17540700Y-6235700D01*
X17538700Y-6235700D01*
X17538700Y-6360625D01*
X17554575Y-6376500D01*
X17628631Y-6376500D01*
X17651970Y-6366833D01*
X17669833Y-6348970D01*
X17675412Y-6335501D01*
X17692936Y-6353055D01*
X17749333Y-6376473D01*
X17810399Y-6376526D01*
X17866837Y-6353207D01*
X17910055Y-6310064D01*
X17933473Y-6253667D01*
X17933527Y-6192601D01*
X17910207Y-6136163D01*
X17867064Y-6092945D01*
X17810667Y-6069527D01*
X17749601Y-6069473D01*
X17693163Y-6092793D01*
X17675416Y-6110509D01*
X17669833Y-6097030D01*
X17651970Y-6079167D01*
X17628631Y-6069500D01*
X17554575Y-6069500D01*
X17538700Y-6085375D01*
X17513300Y-6085375D01*
X17497425Y-6069500D01*
X17423369Y-6069500D01*
X17400030Y-6079167D01*
X17382167Y-6097030D01*
X17372500Y-6120369D01*
X17149268Y-6120369D01*
X17154115Y-6096000D01*
X17146457Y-6057500D01*
X17933713Y-6057500D01*
X17958280Y-6082110D01*
X18007329Y-6102477D01*
X18060438Y-6102523D01*
X18109523Y-6082242D01*
X18134308Y-6057500D01*
X18251342Y-6057500D01*
X18326500Y-6132658D01*
X18326500Y-6856435D01*
X18314671Y-6851523D01*
X18261562Y-6851477D01*
X18212477Y-6871758D01*
X18174890Y-6909280D01*
X18160062Y-6944990D01*
X18157338Y-6931296D01*
X18128399Y-6887986D01*
X18085088Y-6859047D01*
X18079826Y-6858000D01*
X18085088Y-6856953D01*
X18128399Y-6828014D01*
X18157338Y-6784704D01*
X18167500Y-6733615D01*
X18167500Y-6728385D01*
X18157338Y-6677296D01*
X18128399Y-6633986D01*
X18085088Y-6605047D01*
X18034000Y-6594885D01*
X17982912Y-6605047D01*
X17939601Y-6633986D01*
X17910662Y-6677296D01*
X17900500Y-6728385D01*
X17900500Y-6733615D01*
X17910662Y-6784704D01*
X17939601Y-6828014D01*
X17982912Y-6856953D01*
X17988174Y-6858000D01*
X17982912Y-6859047D01*
X17939601Y-6887986D01*
X17910662Y-6931296D01*
X17900500Y-6982385D01*
X17900500Y-6987615D01*
X17910662Y-7038704D01*
X17939601Y-7082014D01*
X17982912Y-7110953D01*
X18034000Y-7121115D01*
X18085088Y-7110953D01*
X18128399Y-7082014D01*
X18157338Y-7038704D01*
X18160069Y-7024973D01*
X18174758Y-7060523D01*
X18212280Y-7098110D01*
X18261329Y-7118477D01*
X18314438Y-7118523D01*
X18326500Y-7113539D01*
X18326500Y-7618543D01*
X18288000Y-7610885D01*
X18236912Y-7621047D01*
X18193601Y-7649986D01*
X18164662Y-7693296D01*
X18161931Y-7707027D01*
X18147242Y-7671477D01*
X18109720Y-7633890D01*
X18060671Y-7613523D01*
X18007562Y-7613477D01*
X17958477Y-7633758D01*
X17920890Y-7671280D01*
X17900523Y-7720329D01*
X17900477Y-7773438D01*
X17920758Y-7822523D01*
X17958280Y-7860110D01*
X18007329Y-7880477D01*
X18060438Y-7880523D01*
X18109523Y-7860242D01*
X18147110Y-7822720D01*
X18161938Y-7787010D01*
X18164662Y-7800704D01*
X18193601Y-7844014D01*
X18236912Y-7872953D01*
X18288000Y-7883115D01*
X18326500Y-7875457D01*
X18326500Y-7964342D01*
X18306326Y-7984516D01*
X18259581Y-7984475D01*
X18206820Y-8006276D01*
X18173538Y-8039500D01*
X18146947Y-8039500D01*
X18138281Y-8026530D01*
X18091726Y-7995423D01*
X18036811Y-7984500D01*
X18031189Y-7984500D01*
X17976274Y-7995423D01*
X17929719Y-8026530D01*
X17898612Y-8073085D01*
X17887689Y-8128000D01*
X17898612Y-8182915D01*
X17929719Y-8229470D01*
X17967928Y-8255000D01*
X17929719Y-8280530D01*
X17898612Y-8327085D01*
X17887689Y-8382000D01*
X17898612Y-8436915D01*
X17929719Y-8483470D01*
X17967928Y-8509000D01*
X17929719Y-8534530D01*
X17898612Y-8581085D01*
X17887689Y-8636000D01*
X17898612Y-8690915D01*
X17929719Y-8737470D01*
X17967928Y-8763000D01*
X17929719Y-8788530D01*
X17898612Y-8835085D01*
X17887689Y-8890000D01*
X17898612Y-8944915D01*
X17929719Y-8991470D01*
X17967928Y-9017000D01*
X17929719Y-9042530D01*
X17898612Y-9089085D01*
X17887689Y-9144000D01*
X17898612Y-9198915D01*
X17929719Y-9245470D01*
X17967928Y-9271000D01*
X17929719Y-9296530D01*
X17898612Y-9343085D01*
X17887689Y-9398000D01*
X17898612Y-9452915D01*
X17929719Y-9499470D01*
X17967928Y-9525000D01*
X17929719Y-9550530D01*
X17898612Y-9597085D01*
X17887689Y-9652000D01*
X17898612Y-9706915D01*
X17929719Y-9753470D01*
X17976274Y-9784577D01*
X18031189Y-9795500D01*
X18036811Y-9795500D01*
X18091726Y-9784577D01*
X18138281Y-9753470D01*
X18169388Y-9706915D01*
X18180311Y-9652000D01*
X18169388Y-9597085D01*
X18138281Y-9550530D01*
X18100073Y-9525000D01*
X18138281Y-9499470D01*
X18169388Y-9452915D01*
X18180311Y-9398000D01*
X18169388Y-9343085D01*
X18138281Y-9296530D01*
X18100073Y-9271000D01*
X18138281Y-9245470D01*
X18169388Y-9198915D01*
X18180311Y-9144000D01*
X18169388Y-9089085D01*
X18138281Y-9042530D01*
X18100073Y-9017000D01*
X18138281Y-8991470D01*
X18169388Y-8944915D01*
X18180311Y-8890000D01*
X18169388Y-8835085D01*
X18138281Y-8788530D01*
X18100073Y-8763000D01*
X18138281Y-8737470D01*
X18144091Y-8728775D01*
X18205186Y-8728775D01*
X18212600Y-8753386D01*
X18266322Y-8772697D01*
X18323345Y-8769978D01*
X18363401Y-8753386D01*
X18370814Y-8728775D01*
X18288000Y-8645961D01*
X18205186Y-8728775D01*
X18144091Y-8728775D01*
X18162014Y-8701952D01*
X18162614Y-8703401D01*
X18187226Y-8710814D01*
X18270040Y-8628000D01*
X18305961Y-8628000D01*
X18388775Y-8710814D01*
X18413386Y-8703401D01*
X18432697Y-8649678D01*
X18429978Y-8592655D01*
X18413386Y-8552600D01*
X18388775Y-8545186D01*
X18305961Y-8628000D01*
X18270040Y-8628000D01*
X18187226Y-8545186D01*
X18162614Y-8552600D01*
X18158326Y-8564529D01*
X18138281Y-8534530D01*
X18127349Y-8527226D01*
X18205186Y-8527226D01*
X18288000Y-8610040D01*
X18370814Y-8527226D01*
X18363401Y-8502614D01*
X18309678Y-8483304D01*
X18252655Y-8486022D01*
X18212600Y-8502614D01*
X18205186Y-8527226D01*
X18127349Y-8527226D01*
X18100073Y-8509000D01*
X18138281Y-8483470D01*
X18169388Y-8436915D01*
X18180311Y-8382000D01*
X18169388Y-8327085D01*
X18138281Y-8280530D01*
X18100073Y-8255000D01*
X18138281Y-8229470D01*
X18146947Y-8216500D01*
X18173583Y-8216500D01*
X18206608Y-8249582D01*
X18259331Y-8271475D01*
X18316419Y-8271525D01*
X18369180Y-8249724D01*
X18409582Y-8209392D01*
X18431475Y-8156669D01*
X18431516Y-8109642D01*
X18471000Y-8070158D01*
X18471000Y-10274300D01*
X18404037Y-10274300D01*
X18395763Y-10261917D01*
X18346321Y-10228881D01*
X18288000Y-10217280D01*
X18229679Y-10228881D01*
X18180237Y-10261917D01*
X18171963Y-10274300D01*
X18150037Y-10274300D01*
X18141763Y-10261917D01*
X18092321Y-10228881D01*
X18034000Y-10217280D01*
X17975679Y-10228881D01*
X17926237Y-10261917D01*
X17917963Y-10274300D01*
X17896037Y-10274300D01*
X17887763Y-10261917D01*
X17838321Y-10228881D01*
X17780000Y-10217280D01*
X17721679Y-10228881D01*
X17672237Y-10261917D01*
X17663963Y-10274300D01*
X17642037Y-10274300D01*
X17633763Y-10261917D01*
X17584321Y-10228881D01*
X17526000Y-10217280D01*
X17467679Y-10228881D01*
X17418237Y-10261917D01*
X17409963Y-10274300D01*
X17388037Y-10274300D01*
X17379763Y-10261917D01*
X17330321Y-10228881D01*
X17272000Y-10217280D01*
X17213679Y-10228881D01*
X17164237Y-10261917D01*
X17155963Y-10274300D01*
X17134037Y-10274300D01*
X17125763Y-10261917D01*
X17076321Y-10228881D01*
X17018000Y-10217280D01*
X16959679Y-10228881D01*
X16910237Y-10261917D01*
X16901963Y-10274300D01*
X16880037Y-10274300D01*
X16871763Y-10261917D01*
X16822321Y-10228881D01*
X16764000Y-10217280D01*
X16705679Y-10228881D01*
X16656237Y-10261917D01*
X16647963Y-10274300D01*
X16626037Y-10274300D01*
X16617763Y-10261917D01*
X16568321Y-10228881D01*
X16510000Y-10217280D01*
X16451679Y-10228881D01*
X16402237Y-10261917D01*
X16393963Y-10274300D01*
X16372037Y-10274300D01*
X16363763Y-10261917D01*
X16314321Y-10228881D01*
X16256000Y-10217280D01*
X16234531Y-10221550D01*
X15992240Y-9979260D01*
X15967584Y-9962785D01*
X15938500Y-9957000D01*
X15550246Y-9957000D01*
X15547033Y-9953781D01*
X15512680Y-9939516D01*
X15475483Y-9939484D01*
X15441106Y-9953688D01*
X15414781Y-9979967D01*
X15400516Y-10014320D01*
X15400484Y-10051517D01*
X15414688Y-10085894D01*
X15440967Y-10112219D01*
X15475320Y-10126484D01*
X15512517Y-10126516D01*
X15546894Y-10112312D01*
X15550212Y-10109000D01*
X15907020Y-10109000D01*
X16018602Y-10220582D01*
X16002000Y-10217280D01*
X15943679Y-10228881D01*
X15894237Y-10261917D01*
X15885963Y-10274300D01*
X15864037Y-10274300D01*
X15855763Y-10261917D01*
X15806321Y-10228881D01*
X15748000Y-10217280D01*
X15689679Y-10228881D01*
X15640237Y-10261917D01*
X15631963Y-10274300D01*
X15610037Y-10274300D01*
X15601763Y-10261917D01*
X15552321Y-10228881D01*
X15494000Y-10217280D01*
X15435679Y-10228881D01*
X15386237Y-10261917D01*
X15377963Y-10274300D01*
X15356037Y-10274300D01*
X15347763Y-10261917D01*
X15298321Y-10228881D01*
X15240000Y-10217280D01*
X15181679Y-10228881D01*
X15132237Y-10261917D01*
X15123963Y-10274300D01*
X15102037Y-10274300D01*
X15093763Y-10261917D01*
X15044321Y-10228881D01*
X14986000Y-10217280D01*
X14927679Y-10228881D01*
X14878237Y-10261917D01*
X14869963Y-10274300D01*
X14842834Y-10274300D01*
X14830783Y-10259157D01*
X14778588Y-10230241D01*
X14768301Y-10227887D01*
X14744700Y-10239967D01*
X14744700Y-10274300D01*
X14719300Y-10274300D01*
X14719300Y-10239967D01*
X14695699Y-10227887D01*
X14685412Y-10230241D01*
X14633217Y-10259157D01*
X14621166Y-10274300D01*
X14594037Y-10274300D01*
X14585763Y-10261917D01*
X14536321Y-10228881D01*
X14478000Y-10217280D01*
X14419679Y-10228881D01*
X14370237Y-10261917D01*
X14361963Y-10274300D01*
X14340037Y-10274300D01*
X14331763Y-10261917D01*
X14282321Y-10228881D01*
X14233560Y-10219181D01*
X14239719Y-10213033D01*
X14253984Y-10178680D01*
X14254016Y-10141483D01*
X14239812Y-10107106D01*
X14213533Y-10080781D01*
X14187145Y-10069824D01*
X14176312Y-10043606D01*
X14150033Y-10017281D01*
X14115680Y-10003016D01*
X14078483Y-10002984D01*
X14044106Y-10017188D01*
X14040788Y-10020500D01*
X13716000Y-10020500D01*
X13691741Y-10025325D01*
X13686916Y-10026285D01*
X13662260Y-10042760D01*
X13483469Y-10221550D01*
X13462000Y-10217280D01*
X13403679Y-10228881D01*
X13354237Y-10261917D01*
X13345963Y-10274300D01*
X13324037Y-10274300D01*
X13315763Y-10261917D01*
X13266321Y-10228881D01*
X13208000Y-10217280D01*
X13149679Y-10228881D01*
X13100237Y-10261917D01*
X13091963Y-10274300D01*
X13064834Y-10274300D01*
X13052783Y-10259157D01*
X13000588Y-10230241D01*
X12990301Y-10227887D01*
X12966700Y-10239967D01*
X12966700Y-10274300D01*
X12941300Y-10274300D01*
X12941300Y-10239967D01*
X12917699Y-10227887D01*
X12907412Y-10230241D01*
X12855217Y-10259157D01*
X12843166Y-10274300D01*
X12810834Y-10274300D01*
X12798783Y-10259157D01*
X12746588Y-10230241D01*
X12736301Y-10227887D01*
X12712700Y-10239967D01*
X12712700Y-10274300D01*
X12687300Y-10274300D01*
X12687300Y-10239967D01*
X12663699Y-10227887D01*
X12653412Y-10230241D01*
X12601217Y-10259157D01*
X12589166Y-10274300D01*
X12308037Y-10274300D01*
X12299763Y-10261917D01*
X12250321Y-10228881D01*
X12192000Y-10217280D01*
X12133679Y-10228881D01*
X12084237Y-10261917D01*
X12075963Y-10274300D01*
X12054037Y-10274300D01*
X12045763Y-10261917D01*
X12026500Y-10249046D01*
X12026500Y-10160001D01*
X12026500Y-10160000D01*
X12019763Y-10126133D01*
X12012336Y-10115017D01*
X12000579Y-10097421D01*
X12000579Y-10097421D01*
X11873579Y-9970421D01*
X11870822Y-9968579D01*
X11844867Y-9951237D01*
X11839248Y-9950119D01*
X11811000Y-9944500D01*
X11810999Y-9944500D01*
X11466658Y-9944500D01*
X11404658Y-9882500D01*
X17931167Y-9882500D01*
X17931167Y-10194500D01*
X18351500Y-10194500D01*
X18351500Y-9882500D01*
X17931167Y-9882500D01*
X11404658Y-9882500D01*
X11391500Y-9869342D01*
X11391500Y-9788401D01*
X11427189Y-9795500D01*
X11432811Y-9795500D01*
X11487726Y-9784577D01*
X11534281Y-9753470D01*
X11565388Y-9706915D01*
X11576311Y-9652000D01*
X11565388Y-9597085D01*
X11534281Y-9550530D01*
X11496072Y-9525000D01*
X11534281Y-9499470D01*
X11565388Y-9452915D01*
X11576311Y-9398000D01*
X11565388Y-9343085D01*
X11534281Y-9296530D01*
X11496072Y-9271000D01*
X11534281Y-9245470D01*
X11565388Y-9198915D01*
X11576311Y-9144000D01*
X11565388Y-9089085D01*
X11534281Y-9042530D01*
X11496072Y-9017000D01*
X11534281Y-8991470D01*
X11565388Y-8944915D01*
X11576311Y-8890000D01*
X11565388Y-8835085D01*
X11534281Y-8788530D01*
X11496072Y-8763000D01*
X11534281Y-8737470D01*
X11565388Y-8690915D01*
X11576311Y-8636000D01*
X11565388Y-8581085D01*
X11534281Y-8534530D01*
X11496072Y-8509000D01*
X11534281Y-8483470D01*
X11565388Y-8436915D01*
X11576311Y-8382000D01*
X11565388Y-8327085D01*
X11534281Y-8280530D01*
X11496072Y-8255000D01*
X11534281Y-8229470D01*
X11565388Y-8182915D01*
X11576311Y-8128000D01*
X11565388Y-8073085D01*
X11534281Y-8026530D01*
X11523785Y-8019517D01*
X12034984Y-8019517D01*
X12049188Y-8053894D01*
X12075467Y-8080219D01*
X12109820Y-8094484D01*
X12147017Y-8094516D01*
X12172543Y-8083969D01*
X12162016Y-8109320D01*
X12161984Y-8146517D01*
X12176188Y-8180894D01*
X12202467Y-8207219D01*
X12236820Y-8221484D01*
X12274017Y-8221516D01*
X12308394Y-8207312D01*
X12311712Y-8204000D01*
X12619937Y-8204000D01*
X12606516Y-8236320D01*
X12606484Y-8273517D01*
X12620688Y-8307894D01*
X12646967Y-8334219D01*
X12681320Y-8348484D01*
X12718517Y-8348516D01*
X12752894Y-8334312D01*
X12756212Y-8331000D01*
X12817833Y-8331000D01*
X12807689Y-8382000D01*
X12817357Y-8430607D01*
X12816533Y-8429781D01*
X12782180Y-8415516D01*
X12744983Y-8415484D01*
X12710606Y-8429688D01*
X12684281Y-8455967D01*
X12670016Y-8490320D01*
X12669984Y-8527517D01*
X12684188Y-8561894D01*
X12710467Y-8588219D01*
X12744820Y-8602484D01*
X12782017Y-8602516D01*
X12816394Y-8588312D01*
X12817368Y-8587340D01*
X12807689Y-8636000D01*
X12818612Y-8690915D01*
X12849719Y-8737470D01*
X12887927Y-8763000D01*
X12849719Y-8788530D01*
X12818612Y-8835085D01*
X12807689Y-8890000D01*
X12818612Y-8944915D01*
X12849719Y-8991470D01*
X12887927Y-9017000D01*
X12849719Y-9042530D01*
X12818612Y-9089085D01*
X12807689Y-9144000D01*
X12818612Y-9198915D01*
X12849719Y-9245470D01*
X12887927Y-9271000D01*
X12849719Y-9296530D01*
X12818612Y-9343085D01*
X12807689Y-9398000D01*
X12818612Y-9452915D01*
X12849719Y-9499470D01*
X12887927Y-9525000D01*
X12849719Y-9550530D01*
X12818612Y-9597085D01*
X12807689Y-9652000D01*
X12818612Y-9706915D01*
X12849719Y-9753470D01*
X12896274Y-9784577D01*
X12951189Y-9795500D01*
X12956811Y-9795500D01*
X13011726Y-9784577D01*
X13058281Y-9753470D01*
X13089388Y-9706915D01*
X13093368Y-9686904D01*
X13322810Y-9686904D01*
X13338896Y-9725742D01*
X13376487Y-9767239D01*
X13427096Y-9791191D01*
X13449300Y-9779063D01*
X13449300Y-9664700D01*
X13474700Y-9664700D01*
X13474700Y-9779063D01*
X13496904Y-9791191D01*
X13547513Y-9767239D01*
X13585104Y-9725742D01*
X13601190Y-9686904D01*
X13588991Y-9664700D01*
X13474700Y-9664700D01*
X13449300Y-9664700D01*
X13335008Y-9664700D01*
X13322810Y-9686904D01*
X13093368Y-9686904D01*
X13100311Y-9652000D01*
X13089388Y-9597085D01*
X13058281Y-9550530D01*
X13020072Y-9525000D01*
X13058281Y-9499470D01*
X13089388Y-9452915D01*
X13100311Y-9398000D01*
X13089388Y-9343085D01*
X13058281Y-9296530D01*
X13020072Y-9271000D01*
X13058281Y-9245470D01*
X13089388Y-9198915D01*
X13100311Y-9144000D01*
X13089388Y-9089085D01*
X13058281Y-9042530D01*
X13020072Y-9017000D01*
X13058281Y-8991470D01*
X13089388Y-8944915D01*
X13100311Y-8890000D01*
X13089388Y-8835085D01*
X13058281Y-8788530D01*
X13020072Y-8763000D01*
X13058281Y-8737470D01*
X13089388Y-8690915D01*
X13100311Y-8636000D01*
X13090167Y-8585000D01*
X13240020Y-8585000D01*
X13259000Y-8603980D01*
X13259000Y-9017000D01*
X13264785Y-9046084D01*
X13281260Y-9070740D01*
X13322131Y-9111611D01*
X13315689Y-9144000D01*
X13326612Y-9198915D01*
X13357719Y-9245470D01*
X13395927Y-9271000D01*
X13357719Y-9296530D01*
X13326612Y-9343085D01*
X13315689Y-9398000D01*
X13326612Y-9452915D01*
X13357719Y-9499470D01*
X13398170Y-9526499D01*
X13376487Y-9536761D01*
X13338896Y-9578258D01*
X13322810Y-9617096D01*
X13335008Y-9639300D01*
X13449300Y-9639300D01*
X13449300Y-9637300D01*
X13474700Y-9637300D01*
X13474700Y-9639300D01*
X13588991Y-9639300D01*
X13601190Y-9617096D01*
X13585104Y-9578258D01*
X13547513Y-9536761D01*
X13525830Y-9526499D01*
X13566281Y-9499470D01*
X13597388Y-9452915D01*
X13608311Y-9398000D01*
X13597388Y-9343085D01*
X13566281Y-9296530D01*
X13528072Y-9271000D01*
X13566281Y-9245470D01*
X13597388Y-9198915D01*
X13608311Y-9144000D01*
X13597388Y-9089085D01*
X13566281Y-9042530D01*
X13528072Y-9017000D01*
X13566281Y-8991470D01*
X13597388Y-8944915D01*
X13608311Y-8890000D01*
X13601869Y-8857611D01*
X13642740Y-8816740D01*
X13659215Y-8792084D01*
X13665000Y-8763000D01*
X13665000Y-8255000D01*
X13659215Y-8225916D01*
X13659215Y-8225916D01*
X13642740Y-8201260D01*
X13606744Y-8165264D01*
X13606744Y-8048000D01*
X13602316Y-8024468D01*
X13588409Y-8002856D01*
X13567189Y-7988357D01*
X13542000Y-7983256D01*
X13382000Y-7983256D01*
X13358468Y-7987684D01*
X13336856Y-8001591D01*
X13322357Y-8022811D01*
X13317256Y-8048000D01*
X13317256Y-8179000D01*
X13090167Y-8179000D01*
X13100311Y-8128000D01*
X13090643Y-8079393D01*
X13091467Y-8080219D01*
X13125820Y-8094484D01*
X13163017Y-8094516D01*
X13197394Y-8080312D01*
X13223719Y-8054033D01*
X13237984Y-8019680D01*
X13238016Y-7982483D01*
X13234831Y-7974774D01*
X13641186Y-7974774D01*
X13648599Y-7999386D01*
X13702322Y-8018696D01*
X13759345Y-8015978D01*
X13799400Y-7999386D01*
X13806814Y-7974774D01*
X13724000Y-7891960D01*
X13641186Y-7974774D01*
X13234831Y-7974774D01*
X13223812Y-7948106D01*
X13197533Y-7921781D01*
X13163180Y-7907516D01*
X13125983Y-7907484D01*
X13091606Y-7921688D01*
X13090632Y-7922660D01*
X13100311Y-7874000D01*
X13095999Y-7852322D01*
X13579303Y-7852322D01*
X13582022Y-7909345D01*
X13598614Y-7949400D01*
X13623225Y-7956814D01*
X13706039Y-7874000D01*
X13741960Y-7874000D01*
X13824774Y-7956814D01*
X13849386Y-7949400D01*
X13868696Y-7895678D01*
X13865978Y-7838655D01*
X13849386Y-7798599D01*
X13824774Y-7791186D01*
X13741960Y-7874000D01*
X13706039Y-7874000D01*
X13623225Y-7791186D01*
X13598614Y-7798599D01*
X13579303Y-7852322D01*
X13095999Y-7852322D01*
X13090643Y-7825393D01*
X13091467Y-7826219D01*
X13125820Y-7840484D01*
X13163017Y-7840516D01*
X13197394Y-7826312D01*
X13223719Y-7800033D01*
X13234850Y-7773225D01*
X13641186Y-7773225D01*
X13724000Y-7856039D01*
X13806814Y-7773225D01*
X13799400Y-7748614D01*
X13745678Y-7729303D01*
X13688655Y-7732022D01*
X13648599Y-7748614D01*
X13641186Y-7773225D01*
X13234850Y-7773225D01*
X13237984Y-7765680D01*
X13238016Y-7728483D01*
X13223812Y-7694106D01*
X13197533Y-7667781D01*
X13163180Y-7653516D01*
X13125983Y-7653484D01*
X13091606Y-7667688D01*
X13090632Y-7668660D01*
X13100311Y-7620000D01*
X13089388Y-7565085D01*
X13058281Y-7518530D01*
X13020072Y-7493000D01*
X13058281Y-7467470D01*
X13089388Y-7420915D01*
X13100311Y-7366000D01*
X13089388Y-7311085D01*
X13058281Y-7264530D01*
X13020072Y-7239000D01*
X13058281Y-7213470D01*
X13089388Y-7166915D01*
X13100311Y-7112000D01*
X13089388Y-7057085D01*
X13058281Y-7010530D01*
X13020072Y-6985000D01*
X13058281Y-6959470D01*
X13089388Y-6912915D01*
X13100311Y-6858000D01*
X13089388Y-6803085D01*
X13058281Y-6756530D01*
X13020072Y-6731000D01*
X13058281Y-6705470D01*
X13089388Y-6658915D01*
X13100311Y-6604000D01*
X13089388Y-6549085D01*
X13058281Y-6502530D01*
X13020072Y-6477000D01*
X13058281Y-6451470D01*
X13089388Y-6404915D01*
X13100311Y-6350000D01*
X13089388Y-6295085D01*
X13058888Y-6249438D01*
X13328477Y-6249438D01*
X13348758Y-6298523D01*
X13386280Y-6336110D01*
X13419753Y-6350009D01*
X13386477Y-6363758D01*
X13348890Y-6401280D01*
X13328523Y-6450329D01*
X13328477Y-6503438D01*
X13348758Y-6552523D01*
X13386280Y-6590110D01*
X13419753Y-6604009D01*
X13386477Y-6617758D01*
X13348890Y-6655280D01*
X13328523Y-6704329D01*
X13328477Y-6757438D01*
X13348758Y-6806523D01*
X13386280Y-6844110D01*
X13419753Y-6858009D01*
X13386477Y-6871758D01*
X13348890Y-6909280D01*
X13328523Y-6958329D01*
X13328477Y-7011438D01*
X13348758Y-7060523D01*
X13386280Y-7098110D01*
X13419753Y-7112009D01*
X13386477Y-7125758D01*
X13348890Y-7163280D01*
X13328523Y-7212329D01*
X13328477Y-7265438D01*
X13348758Y-7314523D01*
X13386280Y-7352110D01*
X13419753Y-7366009D01*
X13386477Y-7379758D01*
X13348890Y-7417280D01*
X13328523Y-7466329D01*
X13328477Y-7519438D01*
X13348758Y-7568523D01*
X13386280Y-7606110D01*
X13435329Y-7626477D01*
X13488438Y-7626523D01*
X13537523Y-7606242D01*
X13575110Y-7568720D01*
X13595477Y-7519671D01*
X13595523Y-7466562D01*
X13575242Y-7417477D01*
X13537720Y-7379890D01*
X13504247Y-7365991D01*
X13537523Y-7352242D01*
X13575110Y-7314720D01*
X13595477Y-7265671D01*
X13595523Y-7212562D01*
X13575242Y-7163477D01*
X13537720Y-7125890D01*
X13504247Y-7111991D01*
X13537523Y-7098242D01*
X13575110Y-7060720D01*
X13595477Y-7011671D01*
X13595523Y-6958562D01*
X13575242Y-6909477D01*
X13537720Y-6871890D01*
X13504247Y-6857991D01*
X13537523Y-6844242D01*
X13575110Y-6806720D01*
X13595477Y-6757671D01*
X13595523Y-6704562D01*
X13575242Y-6655477D01*
X13537720Y-6617890D01*
X13504247Y-6603991D01*
X13537523Y-6590242D01*
X13575110Y-6552720D01*
X13595477Y-6503671D01*
X13595523Y-6450562D01*
X13575242Y-6401477D01*
X13537720Y-6363890D01*
X13504247Y-6349991D01*
X13537523Y-6336242D01*
X13575110Y-6298720D01*
X13595477Y-6249671D01*
X13595523Y-6196562D01*
X13575242Y-6147477D01*
X13537720Y-6109890D01*
X13488671Y-6089523D01*
X13435562Y-6089477D01*
X13386477Y-6109758D01*
X13348890Y-6147280D01*
X13328523Y-6196329D01*
X13328477Y-6249438D01*
X13058888Y-6249438D01*
X13058281Y-6248530D01*
X13011726Y-6217423D01*
X12956811Y-6206500D01*
X12951189Y-6206500D01*
X12896274Y-6217423D01*
X12849719Y-6248530D01*
X12818612Y-6295085D01*
X12807689Y-6350000D01*
X12818612Y-6404915D01*
X12849719Y-6451470D01*
X12887927Y-6477000D01*
X12849719Y-6502530D01*
X12818612Y-6549085D01*
X12807689Y-6604000D01*
X12818612Y-6658915D01*
X12849719Y-6705470D01*
X12887927Y-6731000D01*
X12849719Y-6756530D01*
X12818612Y-6803085D01*
X12807689Y-6858000D01*
X12818612Y-6912915D01*
X12849719Y-6959470D01*
X12887927Y-6985000D01*
X12849719Y-7010530D01*
X12818612Y-7057085D01*
X12807689Y-7112000D01*
X12818612Y-7166915D01*
X12849719Y-7213470D01*
X12887927Y-7239000D01*
X12849719Y-7264530D01*
X12818612Y-7311085D01*
X12807689Y-7366000D01*
X12818612Y-7420915D01*
X12849719Y-7467470D01*
X12887927Y-7493000D01*
X12849719Y-7518530D01*
X12832700Y-7544000D01*
X12629246Y-7544000D01*
X12626033Y-7540781D01*
X12591680Y-7526516D01*
X12554483Y-7526484D01*
X12520106Y-7540688D01*
X12493781Y-7566967D01*
X12479516Y-7601320D01*
X12479484Y-7638517D01*
X12492906Y-7671000D01*
X12248246Y-7671000D01*
X12245033Y-7667781D01*
X12210680Y-7653516D01*
X12173483Y-7653484D01*
X12139106Y-7667688D01*
X12112781Y-7693967D01*
X12098516Y-7728320D01*
X12098484Y-7765517D01*
X12112688Y-7799894D01*
X12138967Y-7826219D01*
X12173320Y-7840484D01*
X12210517Y-7840516D01*
X12244894Y-7826312D01*
X12248212Y-7823000D01*
X12429437Y-7823000D01*
X12416016Y-7855320D01*
X12415984Y-7892517D01*
X12429406Y-7925000D01*
X12184746Y-7925000D01*
X12181533Y-7921781D01*
X12147180Y-7907516D01*
X12109983Y-7907484D01*
X12075606Y-7921688D01*
X12049281Y-7947967D01*
X12035016Y-7982320D01*
X12034984Y-8019517D01*
X11523785Y-8019517D01*
X11496072Y-8001000D01*
X11534281Y-7975470D01*
X11565388Y-7928915D01*
X11576311Y-7874000D01*
X11565388Y-7819085D01*
X11534281Y-7772530D01*
X11493830Y-7745501D01*
X11515513Y-7735239D01*
X11553104Y-7693742D01*
X11569190Y-7654904D01*
X11556991Y-7632700D01*
X11442700Y-7632700D01*
X11442700Y-7634700D01*
X11417300Y-7634700D01*
X11417300Y-7632700D01*
X11415300Y-7632700D01*
X11415300Y-7607300D01*
X11417300Y-7607300D01*
X11417300Y-7605300D01*
X11442700Y-7605300D01*
X11442700Y-7607300D01*
X11556991Y-7607300D01*
X11569190Y-7585096D01*
X11553104Y-7546258D01*
X11515513Y-7504761D01*
X11493830Y-7494499D01*
X11534281Y-7467470D01*
X11565388Y-7420915D01*
X11576311Y-7366000D01*
X11565388Y-7311085D01*
X11534281Y-7264530D01*
X11496072Y-7239000D01*
X11534281Y-7213470D01*
X11565388Y-7166915D01*
X11576311Y-7112000D01*
X11565388Y-7057085D01*
X11534281Y-7010530D01*
X11496072Y-6985000D01*
X11534281Y-6959470D01*
X11565388Y-6912915D01*
X11576311Y-6858000D01*
X11565388Y-6803085D01*
X11534281Y-6756530D01*
X11496072Y-6731000D01*
X11534281Y-6705470D01*
X11565388Y-6658915D01*
X11576311Y-6604000D01*
X11565388Y-6549085D01*
X11534281Y-6502530D01*
X11519853Y-6492890D01*
X11533532Y-6490316D01*
X11555144Y-6476409D01*
X11569643Y-6455189D01*
X11574744Y-6430000D01*
X11574744Y-6270000D01*
X11570316Y-6246468D01*
X11556409Y-6224856D01*
X11535189Y-6210357D01*
X11510000Y-6205256D01*
X11391500Y-6205256D01*
X11391500Y-6132658D01*
X11466658Y-6057500D01*
X11520342Y-6057500D01*
X11540516Y-6077674D01*
M02*
