G04 #@! TF.FileFunction,Soldermask,Bot*
%FSLAX45Y45*%
G04 Gerber Fmt 4.5, Leading zero omitted, Abs format (unit mm)*
G04 Created by KiCad (PCBNEW 4.0.7) date 03/07/18 09:30:50*
%MOMM*%
%LPD*%
G01*
G04 APERTURE LIST*
%ADD10C,0.100000*%
%ADD11R,2.000000X2.000000*%
%ADD12O,2.000000X2.000000*%
%ADD13C,2.000000*%
%ADD14O,2.178000X5.480000*%
%ADD15C,1.800000*%
%ADD16O,1.800000X1.800000*%
%ADD17C,1.900000*%
%ADD18O,1.800000X2.400000*%
%ADD19O,2.400000X1.800000*%
%ADD20R,2.200000X2.200000*%
%ADD21C,2.200000*%
%ADD22R,2.100000X2.100000*%
%ADD23O,2.100000X2.100000*%
G04 APERTURE END LIST*
D10*
D11*
X16002000Y-7874000D03*
D12*
X16764000Y-9652000D03*
X16002000Y-8128000D03*
X16764000Y-9398000D03*
X16002000Y-8382000D03*
X16764000Y-9144000D03*
X16002000Y-8636000D03*
X16764000Y-8890000D03*
X16002000Y-8890000D03*
X16764000Y-8636000D03*
X16002000Y-9144000D03*
X16764000Y-8382000D03*
X16002000Y-9398000D03*
X16764000Y-8128000D03*
X16002000Y-9652000D03*
X16764000Y-7874000D03*
D13*
X17018000Y-7239000D03*
X16518000Y-7239000D03*
X17018000Y-6985000D03*
X16518000Y-6985000D03*
X15494000Y-7874000D03*
X14994000Y-7874000D03*
X16764000Y-7620000D03*
X16264000Y-7620000D03*
X18288000Y-8128000D03*
X18288000Y-8628000D03*
X11684000Y-6096000D03*
X12184000Y-6096000D03*
D14*
X11430000Y-10541000D03*
X11684000Y-10541000D03*
X11938000Y-10541000D03*
X12192000Y-10541000D03*
X12700000Y-10541000D03*
X12954000Y-10541000D03*
X13208000Y-10541000D03*
X13462000Y-10541000D03*
X13716000Y-10541000D03*
X13970000Y-10541000D03*
X14224000Y-10541000D03*
X14478000Y-10541000D03*
X14732000Y-10541000D03*
X14986000Y-10541000D03*
X15240000Y-10541000D03*
X15494000Y-10541000D03*
X15748000Y-10541000D03*
X16002000Y-10541000D03*
X16256000Y-10541000D03*
X16510000Y-10541000D03*
X16764000Y-10541000D03*
X17018000Y-10541000D03*
X17272000Y-10541000D03*
X17526000Y-10541000D03*
X17780000Y-10541000D03*
X18034000Y-10541000D03*
X18288000Y-10541000D03*
D15*
X18288000Y-6985000D03*
D16*
X18288000Y-7747000D03*
D15*
X18034000Y-7747000D03*
D16*
X18034000Y-6985000D03*
D15*
X13462000Y-6731000D03*
D16*
X14224000Y-6731000D03*
D15*
X13462000Y-6477000D03*
D16*
X14224000Y-6477000D03*
D15*
X13462000Y-6223000D03*
D16*
X14224000Y-6223000D03*
D15*
X13462000Y-6985000D03*
D16*
X14224000Y-6985000D03*
D15*
X16256000Y-6604000D03*
D16*
X17018000Y-6604000D03*
D15*
X16256000Y-6350000D03*
D16*
X17018000Y-6350000D03*
D15*
X16002000Y-6096000D03*
D16*
X16002000Y-6858000D03*
D15*
X16256000Y-6096000D03*
D16*
X17018000Y-6096000D03*
D15*
X13462000Y-7493000D03*
D16*
X14224000Y-7493000D03*
D15*
X13462000Y-7239000D03*
D16*
X14224000Y-7239000D03*
D11*
X17272000Y-8128000D03*
D12*
X18034000Y-9652000D03*
X17272000Y-8382000D03*
X18034000Y-9398000D03*
X17272000Y-8636000D03*
X18034000Y-9144000D03*
X17272000Y-8890000D03*
X18034000Y-8890000D03*
X17272000Y-9144000D03*
X18034000Y-8636000D03*
X17272000Y-9398000D03*
X18034000Y-8382000D03*
X17272000Y-9652000D03*
X18034000Y-8128000D03*
D11*
X13462000Y-8128000D03*
D12*
X14224000Y-9652000D03*
X13462000Y-8382000D03*
X14224000Y-9398000D03*
X13462000Y-8636000D03*
X14224000Y-9144000D03*
X13462000Y-8890000D03*
X14224000Y-8890000D03*
X13462000Y-9144000D03*
X14224000Y-8636000D03*
X13462000Y-9398000D03*
X14224000Y-8382000D03*
X13462000Y-9652000D03*
X14224000Y-8128000D03*
D11*
X11430000Y-6350000D03*
D12*
X12954000Y-9652000D03*
X11430000Y-6604000D03*
X12954000Y-9398000D03*
X11430000Y-6858000D03*
X12954000Y-9144000D03*
X11430000Y-7112000D03*
X12954000Y-8890000D03*
X11430000Y-7366000D03*
X12954000Y-8636000D03*
X11430000Y-7620000D03*
X12954000Y-8382000D03*
X11430000Y-7874000D03*
X12954000Y-8128000D03*
X11430000Y-8128000D03*
X12954000Y-7874000D03*
X11430000Y-8382000D03*
X12954000Y-7620000D03*
X11430000Y-8636000D03*
X12954000Y-7366000D03*
X11430000Y-8890000D03*
X12954000Y-7112000D03*
X11430000Y-9144000D03*
X12954000Y-6858000D03*
X11430000Y-9398000D03*
X12954000Y-6604000D03*
X11430000Y-9652000D03*
X12954000Y-6350000D03*
D17*
X17526000Y-6985000D03*
X17526000Y-7473000D03*
D11*
X14859000Y-7366000D03*
D13*
X14609000Y-7366000D03*
D11*
X15621000Y-7366000D03*
D13*
X15371000Y-7366000D03*
D18*
X14613000Y-6723000D03*
X14863000Y-6723000D03*
X15363000Y-6723000D03*
D19*
X15113000Y-6223000D03*
D18*
X15613000Y-6723000D03*
D13*
X14224000Y-7874000D03*
X13724000Y-7874000D03*
D11*
X14732000Y-8128000D03*
D12*
X15494000Y-9652000D03*
X14732000Y-8382000D03*
X15494000Y-9398000D03*
X14732000Y-8636000D03*
X15494000Y-9144000D03*
X14732000Y-8890000D03*
X15494000Y-8890000D03*
X14732000Y-9144000D03*
X15494000Y-8636000D03*
X14732000Y-9398000D03*
X15494000Y-8382000D03*
X14732000Y-9652000D03*
X15494000Y-8128000D03*
D20*
X17526000Y-6223000D03*
D21*
X17780000Y-6223000D03*
D15*
X18034000Y-5969000D03*
D16*
X18034000Y-6731000D03*
D15*
X14478000Y-9144000D03*
D16*
X14478000Y-8382000D03*
D22*
X14478000Y-9398000D03*
D23*
X14478000Y-9652000D03*
M02*
