M48
;DRILL file {KiCad 4.0.7} date 03/07/18 09:30:52
;FORMAT={2:4/ absolute / inch / suppress trailing zeros}
FMAT,2
INCH,LZ
T1C0.016
T2C0.024
T3C0.028
T4C0.031
T5C0.035
T6C0.039
%
G90
G05
M72
T1
X0455Y-04025
X04775Y-0315
X048Y-0305
X04825Y-032
X04925Y-031
X0495Y-03
X05Y-0325
X05025Y-0335
X05175Y-0305
X05175Y-0315
X0555Y-03975
X05575Y-04
X061Y-0395
X062Y-0325
X062Y-0335
X062Y-0345
X0645Y-0335
X06475Y-0325
X065Y-0345
T3
X053Y-0245
X053Y-0255
X053Y-0265
X053Y-0275
X053Y-0285
X053Y-0295
X056Y-0245
X056Y-0255
X056Y-0265
X056Y-0275
X056Y-0285
X056Y-0295
X057Y-033
X057Y-036
X063Y-024
X063Y-027
X064Y-024
X064Y-025
X064Y-026
X067Y-024
X067Y-025
X067Y-026
X071Y-0235
X071Y-0265
X071Y-0275
X071Y-0305
X072Y-0275
X072Y-0305
T4
X045Y-025
X045Y-026
X045Y-027
X045Y-028
X045Y-029
X045Y-03
X045Y-031
X045Y-032
X045Y-033
X045Y-034
X045Y-035
X045Y-036
X045Y-037
X045Y-038
X046Y-024
X047969Y-024
X051Y-025
X051Y-026
X051Y-027
X051Y-028
X051Y-029
X051Y-03
X051Y-031
X051Y-032
X051Y-033
X051Y-034
X051Y-035
X051Y-036
X051Y-037
X051Y-038
X053Y-032
X053Y-033
X053Y-034
X053Y-035
X053Y-036
X053Y-037
X053Y-038
X054031Y-031
X056Y-031
X056Y-032
X056Y-033
X056Y-034
X056Y-035
X056Y-036
X056Y-037
X056Y-038
X057516Y-029
X058Y-032
X058Y-033
X058Y-034
X058Y-035
X058Y-036
X058Y-037
X058Y-038
X0585Y-029
X059031Y-031
X060516Y-029
X061Y-031
X061Y-032
X061Y-033
X061Y-034
X061Y-035
X061Y-036
X061Y-037
X061Y-038
X0615Y-029
X063Y-031
X063Y-032
X063Y-033
X063Y-034
X063Y-035
X063Y-036
X063Y-037
X063Y-038
X064031Y-03
X065031Y-0275
X065031Y-0285
X066Y-03
X066Y-031
X066Y-032
X066Y-033
X066Y-034
X066Y-035
X066Y-036
X066Y-037
X066Y-038
X067Y-0275
X067Y-0285
X068Y-032
X068Y-033
X068Y-034
X068Y-035
X068Y-036
X068Y-037
X068Y-038
X069Y-0275
X069Y-029421
X071Y-032
X071Y-033
X071Y-034
X071Y-035
X071Y-036
X071Y-037
X071Y-038
X072Y-032
X072Y-033969
T5
X069Y-0245
X07Y-0245
T6
X057Y-037
X057Y-038
T2
X057531Y-026587G85X057531Y-02635
G05
X058516Y-026587G85X058516Y-02635
G05
X059618Y-0245G85X059382Y-0245
G05
X060484Y-026587G85X060484Y-02635
G05
X061469Y-026587G85X061469Y-02635
G05
T0
M30
